<?xml version="1.0" standalone="no"?>
<!DOCTYPE svg PUBLIC "-//W3C//DTD SVG 1.1//EN" "http://www.w3.org/Graphics/SVG/1.1/DTD/svg11.dtd" >
<svg xmlns="http://www.w3.org/2000/svg">
<metadata></metadata>
<defs>
<font id="nordregular" horiz-adv-x="1122" >
<font-face units-per-em="2048" ascent="1536" descent="-512" />
<missing-glyph horiz-adv-x="1024" />
<glyph horiz-adv-x="0" />
<glyph horiz-adv-x="682" />
<glyph unicode=" "  horiz-adv-x="1024" />
<glyph unicode="&#x09;" horiz-adv-x="1024" />
<glyph unicode="&#xa0;" horiz-adv-x="1024" />
<glyph unicode="!" horiz-adv-x="1050" d="M494 -1q-6 13 0 25.5t22 12.5t22 -12.5t0 -25.5t-22 -13t-22 13zM494 1468q0 13 12 13h20q7 0 9 -2q4 -4 4 -11v-77q-2 -80 -2 -240q-2 -106 -2 -324q-3 -163 -3 -327q-2 -86 -2 -256q0 -18 -1 -52.5t-1 -50.5q0 -12 -12 -12t-12 12v78q-2 80 -2 240q-2 106 -2 323 q-1 55 -2 164t-2 164v256q-2 35 -2 102z" />
<glyph unicode="#" horiz-adv-x="1507" d="M262 498.5q0 13.5 12 13.5h93h106q12 33 33.5 98.5t32.5 98.5q6 19 19.5 58t19.5 58h-72h-150q-12 0 -12 13.5t12 13.5h93h137q8 25 25.5 74.5t25.5 74.5q7 23 21.5 68.5t21.5 67.5q3 7 10.5 7.5t12.5 -4t2 -12.5q-6 -21 -14 -44.5t-18.5 -52t-15.5 -44.5 q-21 -67 -45 -135h131h228q8 24 24.5 74t24.5 75q7 23 22.5 68.5t22.5 67.5q2 7 9 7.5t12.5 -4t3.5 -12.5l-48 -141q-7 -22 -22.5 -67t-22.5 -68h64h149q12 0 12 -13.5t-12 -13.5h-92h-129q-24 -67 -45 -135q-10 -30 -29.5 -89.5t-29.5 -88.5h94h147q12 0 12 -13.5 t-12 -13.5h-90h-159q-5 -15 -15.5 -45t-15.5 -45q-7 -21 -43 -133q-5 -13 -18 -9q-11 4 -7 15q9 32 47 142l13.5 40.5l11.5 34.5h-109h-249q-5 -16 -14.5 -45.5t-14.5 -44.5q-20 -57 -45 -133q-2 -8 -9 -9.5t-12.5 3t-3.5 12.5q8 23 23.5 70.5t23.5 71.5l13.5 40.5 l11.5 34.5h-41h-150q-12 0 -12 13.5zM500 512h162h196q18 58 66 197q16 51 39 116h-140h-219q-21 -67 -45 -135q-12 -40 -59 -178z" />
<glyph unicode="$" horiz-adv-x="1206" d="M205 424q0 4 3.5 8t8.5 4q10 0 14 -12q3 -38 15 -68q19 -63 67 -120q9 -10 29.5 -29t26.5 -25q38 -33 75 -51q67 -31 136 -31q6 0 6 -2q2 2 8 2q113 0 207 72q88 69 124 177t3 212q-37 118 -152 180q-36 19 -77 30.5t-100.5 22t-82.5 15.5q-74 17 -127 53q-52 37 -92 86 q-85 109 -82 236q3 122 72 215q71 96 178 133q49 19 117 22v158q0 12 13 12t13 -12v-158q37 0 82 -10q129 -36 201 -143q4 -7 -0.5 -12.5t-11 -5.5t-11.5 6q-69 102 -182 129q-114 29 -219 -13q-107 -41 -170 -135q-64 -103 -55 -219q9 -126 104 -221q51 -51 107 -74 q47 -20 133 -35q108 -19 135 -28q59 -17 113 -56q103 -80 127 -202q24 -111 -21 -220q-46 -107 -135 -172q-89 -64 -197 -67v-156q0 -12 -13 -12t-13 12v156h-2q-59 0 -103 16q-68 21 -110 60q-40 35 -50 45q-12 10 -32 34q-22 29 -37 58q-34 63 -43 135z" />
<glyph unicode="%" horiz-adv-x="1245" d="M102 1040v109v143q0 30 9 60q15 57 63 92q48 37 108.5 36t108.5 -38q49 -42 60 -94q6 -18 6 -58v-250q0 -88 -72 -141q-33 -25 -75 -32.5t-81 5.5q-56 17 -91.5 63.5t-35.5 104.5zM129 1057q0 -35 4 -51q14 -56 61.5 -89t104.5 -26q56 6 93.5 49.5t39.5 99.5v97v149 q0 31 -4 45q-9 56 -55 92q-45 35 -104 30.5t-99 -44.5q-41 -44 -41 -100v-33v-156v-63zM160 -96q12 21 41 69q18 29 52.5 89t51.5 90q10 17 146 251q47 77 167 287q102 171 168 287q57 98 148 250q17 29 51 89t51 89q36 58 39 65q5 6 11.5 6t11 -5.5t0.5 -12.5 q-6 -12 -20.5 -35t-20.5 -34q-18 -29 -52 -89l-51 -90q-74 -123 -147 -249q-5 -9 -168 -287q-69 -116 -168 -289q-49 -82 -147 -250q-23 -42 -103 -176q-25 -40 -39 -68q-5 -6 -11 -6t-10.5 6t-0.5 13zM870 145v109v143q0 25 7 60q19 58 65 92q47 37 108.5 35.5t108.5 -39.5 q48 -38 60 -94q6 -18 6 -56v-250q0 -88 -72 -141q-32 -25 -75 -33t-81 4q-56 17 -91.5 64.5t-35.5 105.5zM897 162q0 -35 4 -53q13 -55 61 -88t105 -27q57 7 94 50.5t39 100.5v95v149q0 31 -4 47q-9 52 -55 92q-44 34 -103.5 29.5t-99.5 -45.5q-41 -44 -41 -98v-35v-156v-61 z" />
<glyph unicode="&#x26;" horiz-adv-x="1280" d="M103 422q-3 119 55 221q45 81 120.5 135.5t165.5 73.5q-130 43 -190 160q-56 112 -25 229q30 111 129 182q102 70 226 54q133 -19 215 -127q6 -9 -4 -19q-11 -6 -19 6q-46 61 -118.5 92.5t-149.5 22.5q-116 -13 -193 -102q-75 -88 -69 -207q6 -120 92 -199 q85 -82 203 -82q12 0 12 -12t-12 -12h-4h-2q-27 0 -41 -2q-111 -11 -204 -80.5t-134 -173.5q-42 -107 -21 -223.5t98 -200.5q77 -86 185 -117q108 -34 229 -2q108 32 186 116.5t101 194.5q8 52 8 115v143v236q0 12 12 12h39h254q12 0 12 -12.5t-12 -12.5h-39h-241v-12v-295 v-92q0 -107 -47 -199q-54 -103 -152.5 -166t-214.5 -69q-115 -4 -219 51.5t-166 153.5q-62 100 -65 219z" />
<glyph unicode="(" horiz-adv-x="452" d="M113 598q-31 237 43 463q77 232 254 409q5 6 11.5 3.5t8.5 -9t-2 -12.5q-67 -67 -117 -137q-137 -196 -172 -436q-35 -238 39 -461q74 -232 250 -408q5 -6 2 -12.5t-9 -8t-11 2.5q-76 76 -134 164q-136 202 -163 442z" />
<glyph unicode=")" horiz-adv-x="452" d="M103 -2q-2 6 3 12q70 70 115 137q139 197 174 437q34 231 -39 460q-74 232 -250 408q-6 6 -3 13t9.5 8.5t12.5 -3.5q72 -72 133 -161q133 -202 164 -443q31 -242 -45 -465q-78 -235 -252 -409q-6 -5 -13 -2.5t-9 8.5z" />
<glyph unicode="+" horiz-adv-x="837" d="M103 723q0 12 12 12h188h143v160v174q0 12 13.5 12t13.5 -12v-190v-144h158h174q12 0 12 -12t-12 -12h-189h-143v-158v-174q0 -12 -13.5 -12t-13.5 12v188v144h-157h-174q-12 0 -12 12z" />
<glyph unicode="," horiz-adv-x="233" d="M104 -180q62 166 82 215q5 12 19 7q10 -4 6 -13q-20 -49 -82 -215q-5 -14 -19 -7q-10 4 -6 13z" />
<glyph unicode="-" horiz-adv-x="837" d="M103 723q0 12 12 12h188h328h174q12 0 12 -12t-12 -12h-189h-327h-174q-12 0 -12 12z" />
<glyph unicode="." horiz-adv-x="172" d="M105 9q-6 13 0 25.5t22 12.5t22 -12.5t0 -25.5t-22 -13t-22 13z" />
<glyph unicode="/" horiz-adv-x="710" d="M104 2q5 14 13.5 38.5t11.5 31.5q50 127 78 202q18 48 54.5 143.5t55.5 143.5q39 104 121 316q74 192 111 290q77 198 82 213q17 46 33 82q3 12 15 9t9 -15q-13 -31 -26 -67q-56 -146 -78 -205q-18 -47 -55 -142.5t-56 -142.5q-45 -121 -121 -315q-18 -48 -54.5 -145.5 t-55.5 -145.5q-5 -15 -82 -213q-5 -15 -15.5 -42.5t-15.5 -41.5q-5 -12 -19 -7q-10 4 -6 13z" />
<glyph unicode="0" horiz-adv-x="962" d="M102 422v74v309v252q0 63 15 125q29 107 114 192q87 80 203.5 104.5t227.5 -14.5q109 -38 184 -127.5t92 -203.5q4 -31 4 -91v-114v-326v-182q0 -117 -59 -217q-61 -99 -165 -154.5t-220 -48.5q-115 6 -212.5 72.5t-144.5 171.5q-39 79 -39 178zM127 432q0 -76 18 -131 q36 -109 121 -182q87 -74 203 -90.5t221 32.5q101 51 164 144q64 98 64 215v14v248v311v76q0 94 -39 168q-50 103 -147.5 165t-211.5 62q-116 -2 -212.5 -64.5t-143.5 -166.5q-37 -75 -37 -164v-78v-311v-248z" />
<glyph unicode="1" horiz-adv-x="616" d="M106 1012q56 53 109 106q192 192 231 230q62 65 127 127q6 6 14.5 2.5t8.5 -11.5v-20v-168v-285v-334v-319v-240v-94q0 -12 -13.5 -12t-13.5 12v21v168v282v334v322v239v64l-86 -86q-38 -38 -114.5 -115t-114.5 -115q-86 -86 -129 -127q-9 -9 -18 0.5t-1 18.5z" />
<glyph unicode="2" horiz-adv-x="851" d="M102 1192q0 15 4 39q12 47 58 104q39 51 86 84q99 72 239 58q139 -10 240 -97q85 -76 98 -196q11 -111 -34 -217.5t-127 -194.5q-50 -52 -171 -150.5t-176 -160.5q-38 -44 -67 -92q-23 -38 -49 -103q-30 -70 -41 -112q-15 -64 -15 -129h166h328h176q12 0 12 -13.5 t-12 -13.5h-178h-328h-174q-10 0 -14 12q-7 109 51 254q28 67 47 101q29 54 64 94q55 67 178 168.5t164 142.5q88 85 135 184q50 109 41 215q-10 120 -92 193q-47 41 -110 64.5t-128 25.5q-138 7 -227 -68q-49 -39 -82 -90q-37 -64 -37 -102q0 -12 -12.5 -12t-12.5 12z" />
<glyph unicode="3" horiz-adv-x="993" d="M102 430q0 12 13.5 12t13.5 -12q0 -64 18 -125q35 -107 122 -182.5t198 -95.5q115 -19 223.5 24t175.5 135q68 95 78 210.5t-43 219.5q-55 103 -147 162q-105 62 -217 62h-7q-12 0 -12 12t12 12q71 0 135 32t105 89q71 96 55 215q-12 112 -104 191q-89 77 -211 67 q-136 -10 -217 -117q-6 -10 -17 -6q-12 8 -4 19q62 84 160 114q93 31 193 2q112 -36 178 -133q65 -105 47 -223q-15 -115 -107 -194q-50 -44 -114 -66q55 -11 112 -39q102 -56 164.5 -156t65.5 -215q3 -116 -52.5 -220t-154.5 -165q-100 -60 -220 -62t-222 56 q-100 59 -160 160.5t-60 216.5z" />
<glyph unicode="4" horiz-adv-x="1110" d="M104 483q2 4 7 9q17 24 48 71t48 70q24 36 168 248q31 46 188 276q27 41 80 118.5t72 106.5q10 16 31.5 47t31.5 46q4 8 13.5 5t9.5 -12v-20v-168v-283v-333v-175h141h135q12 0 12 -12t-12 -12h-10h-188h-78v-121v-242v-94q0 -12 -12.5 -12t-12.5 12v21v168v268h-221 h-303h-135q-7 0 -11.5 6t-1.5 12zM141 489h174h322h139v324v322v239v53q-12 -19 -37.5 -56.5t-38.5 -57.5q-72 -104 -170 -248q-31 -46 -93.5 -138.5t-92.5 -138.5q-114 -166 -154 -225q-8 -12 -24.5 -37t-24.5 -37z" />
<glyph unicode="5" horiz-adv-x="954" d="M102 414q0 12 13.5 12t13.5 -12q0 -77 31 -150q43 -104 138 -170t208 -69q122 0 217 59q93 57 145 160q24 49 33 106q6 29 6 88q0 55 -4 84q-6 54 -31 109q-48 101 -141 164q-97 63 -213 63h-4h-41h-252q-12 0 -12 14v86v316v190q0 5 4 9t8 4h129h324h182q12 0 12 -12.5 t-12 -12.5h-129h-324h-170v-74v-315v-178h35h252q2 0 4 -2q122 0 219 -66q99 -64 148 -166q27 -59 35 -108q6 -31 6 -92q0 -69 -2 -82q-5 -50 -29 -113q-44 -105 -137 -174q-94 -71 -213 -81t-223 44q-103 54 -163.5 153.5t-62.5 215.5z" />
<glyph unicode="6" horiz-adv-x="931" d="M103 407q1 41 1 42q0 112 56 204q0 2 2 4q2 4 6 13.5t6 13.5q47 90 137 270q30 59 89 176t89 175q74 146 89 174q5 7 12 6.5t12.5 -8t1.5 -15.5q-3 -4 -14 -26q-22 -45 -68 -135.5t-69 -135.5q-29 -58 -88 -174.5t-89 -175.5q-5 -10 -15 -29.5t-15 -29.5q67 58 153 82 q141 38 277 -23q128 -61 192 -186q30 -65 39 -135q2 -15 2 -95q0 -139 -84 -249q-88 -116 -225 -146q-141 -35 -274 33q-131 66 -187 192q-29 70 -35 136q-2 1 -1 42zM135 449q0 -103 10 -142q21 -93 88 -166q101 -104 236 -116q145 -13 260 71q112 83 141 219q9 42 9 111 q0 70 -11 111q-15 65 -53 121.5t-92 93.5q-118 83 -262 67q-142 -19 -232 -123q-94 -105 -94 -247z" />
<glyph unicode="7" horiz-adv-x="1003" d="M103 1461.5q0 13.5 12 13.5h98h297h313h148q7 0 10 -7.5t0 -13.5q-2 -2 -2 -4l-27.5 -55t-27.5 -56q-56 -108 -111 -219q-49 -92 -143 -280q-25 -50 -75.5 -149.5t-76.5 -149.5q-22 -45 -68 -135.5t-69 -135.5l-98 -196q-24 -43 -39 -74q-5 -7 -11 -7t-10.5 6t-1.5 13 l4 4q9 19 28 56t28 55q19 36 110 219q58 116 144 281q24 50 149 299q47 90 137 270q16 33 50 98.5t51 98.5q10 23 28 55h-78h-297h-315h-145q-12 0 -12 13.5z" />
<glyph unicode="8" horiz-adv-x="952" d="M111 338q-22 122 24 229q45 108 137 176q70 51 152 70q-65 20 -111 55q-96 77 -123 187q-29 121 23 227q49 107 154 158q106 53 227 28q114 -28 186 -116q76 -95 76 -213q0 -74 -31.5 -142.5t-87.5 -115.5q-55 -46 -125 -68q56 -14 95 -35q103 -54 164 -153.5t61 -214.5 q0 -169 -117 -289q-82 -84 -196.5 -113t-227.5 6q-108 35 -184.5 123.5t-95.5 200.5zM143 305q30 -108 115 -184q85 -77 201 -95t219 29q102 46 166 142q63 97 63 213q0 110 -55 198q-57 98 -158 148q-104 53 -221 41q-110 -12 -199.5 -85.5t-123.5 -179.5q-38 -112 -7 -227 zM219 1047q31 -107 129 -170q101 -65 215 -50q115 19 191 107q77 86 77 205q0 91 -51 170q-66 99 -172 129q-118 33 -221 -17q-104 -47 -154 -151q-49 -111 -14 -223z" />
<glyph unicode="9" horiz-adv-x="925" d="M102 1075q0 139 82 246q85 112 224 147q144 36 276 -30q127 -65 184 -191q29 -70 35 -137q2 -27 2 -84q0 -109 -57 -203v-4l-12 -24q-23 -44 -68.5 -133.5t-67.5 -133.5q-29 -59 -88.5 -175t-89.5 -175q-5 -9 -37.5 -74.5t-50.5 -99.5q-5 -8 -12 -8t-12.5 7t-1.5 15 q2 4 6 12.5t6 12.5q45 90 135 266q30 58 89.5 175t88.5 175q5 10 15.5 32t15.5 32q-60 -54 -146 -80q-141 -42 -276 16q-132 60 -195 185q-33 67 -41 133q-4 33 -4 98zM133 1055q0 -65 10 -111q15 -65 52.5 -122t91.5 -95q119 -83 260 -68q139 16 233 121q94 108 94 246 q0 92 -10 135q-22 95 -82 164q-98 106 -233 121q-143 16 -260 -66q-54 -39 -92.5 -95t-53.5 -120q-10 -46 -10 -110z" />
<glyph unicode=":" horiz-adv-x="172" d="M105 97q-6 13 0 25.5t22 12.5t22 -12.5t0 -25.5t-22 -13t-22 13zM105 907.5q-6 12.5 0 24.5t22 12t22 -12t0 -24.5t-22 -12.5t-22 12.5z" />
<glyph unicode=";" horiz-adv-x="258" d="M104 53q13 36 40.5 107.5t41.5 107.5q3 7 10.5 8t12.5 -3.5t2 -12.5q-13 -36 -40.5 -107.5t-41.5 -107.5q-3 -7 -10.5 -8t-12.5 3.5t-2 12.5zM191 907.5q-6 12.5 0 24.5t22 12t22 -12t0 -24.5t-22 -12.5t-22 12.5z" />
<glyph unicode="&#x3c;" horiz-adv-x="647" d="M109 727q-14 11 0 21q19 16 94 71q43 33 128 98.5t128 98.5q25 19 74 56.5t73 57.5q10 7 19 -6q3 -9 -7 -16q-59 -48 -94 -72q-42 -33 -127 -98t-127 -98q-22 -18 -67 -51.5t-68 -51.5q14 -10 40 -30.5t40 -30.5q227 -174 256 -197q122 -93 147 -112q10 -7 7 -17 q-9 -13 -19 -6q-15 12 -47 36.5t-47 37.5q-141 106 -256 194q-24 19 -73 57.5t-74 57.5z" />
<glyph unicode="=" horiz-adv-x="839" d="M103 539.5q0 13.5 12 13.5h2h188h328h174q12 0 12 -13.5t-12 -13.5h-2h-189h-327h-174q-12 0 -12 13.5zM103 913.5q0 12.5 12 12.5h2h188h328h174q12 0 12 -12.5t-12 -12.5h-2h-189h-327h-174q-12 0 -12 12.5z" />
<glyph unicode="&#x3e;" horiz-adv-x="647" d="M104 350q-3 10 7 17q24 20 147 112q29 23 256 197q14 10 40 30.5t40 30.5q-23 18 -68 51.5t-67 51.5q-42 33 -127 98t-127 98q-35 24 -94 72q-10 7 -7 16q9 13 19 6q25 -20 74 -57.5t73 -56.5q43 -33 128 -98.5t128 -98.5q87 -65 95 -71q14 -10 0 -21q-25 -19 -74 -57.5 t-74 -57.5q-115 -88 -256 -194q-16 -12 -47.5 -36.5t-46.5 -37.5q-10 -7 -19 6z" />
<glyph unicode="?" horiz-adv-x="823" d="M102 1208q3 77 78 160q30 35 68 62q38 24 80 36q131 42 260 -10q135 -52 182 -153q48 -99 25 -218q-18 -106 -99 -223q-50 -70 -78 -100q-11 -13 -71 -72q-91 -85 -146 -166l-18 -30q0 -1 -1 -2.5t-1 -2.5q0 -4 -2 -4q-1 -5 -3 -16t-3 -16q-7 -39 -11 -97q-8 -96 -8 -215 q0 -12 -12 -12t-12 12q0 167 12 277q4 51 14 76q6 17 25 43q8 14 37 53q37 47 143 149q92 92 154 199q58 99 61 213q3 123 -67 199q-42 45 -102.5 72.5t-125.5 33.5q-141 14 -233 -57q-47 -38 -82 -88q-37 -64 -37 -103q0 -12 -13.5 -12t-13.5 12zM322 1q-6 13 0 25.5 t22 12.5q17 0 23.5 -12.5t0 -25.5t-23.5 -13q-16 0 -22 13z" />
<glyph unicode="@" horiz-adv-x="1736" d="M113 848q35 231 188 407t371 242q233 73 463 4q227 -65 374 -235q157 -173 195 -404q18 -104 8 -241q-11 -153 -80 -232q-37 -45 -91 -68.5t-111 -17.5q-58 5 -107 36t-76 83q-41 70 -45 209q-25 -110 -115 -185q-92 -74 -213 -77q-125 0 -215 75q-92 74 -120 187 q-27 117 24 229q52 106 158 158q104 52 227 26q118 -29 189 -118q48 -60 67 -140v248q0 12 12.5 12t12.5 -12q3 -147 0 -291v-147q3 -76 26 -137q24 -54 69 -89.5t101 -41.5q57 -6 109 17t86 69q62 81 70 231q4 147 -15 238q-20 103 -76 213q-113 203 -307 311 q-204 117 -442 98q-230 -15 -416 -159q-183 -141 -258 -353q-82 -225 -22 -456q58 -228 223 -379q172 -158 395 -199q136 -25 274 0t259 94q7 4 12.5 0t5.5 -10t-6 -12q-192 -112 -420 -109q-236 3 -432 133q-193 129 -289 336q-98 222 -63 457zM569 616q36 -112 133 -172 q98 -64 218 -45q110 15 190 105q78 91 78 207q0 97 -55 180q-69 94 -177 125q-119 32 -223 -21q-103 -50 -151 -155q-49 -111 -13 -224z" />
<glyph unicode="A" horiz-adv-x="1054" d="M104 12v4q7 23 21.5 68t21.5 68q15 46 43.5 138t42.5 138q19 57 55 172t54 172t52 169.5t52 168.5q7 24 35.5 115.5t44.5 140.5q5 19 17 53.5t16 48.5q3 10 13.5 10t13.5 -10v-2q35 -113 41 -135q15 -46 43 -138t43 -138q82 -269 106 -344q28 -96 103 -338 q14 -43 40 -129l39 -129q5 -18 15.5 -52t15.5 -51q1 -3 1 -6q1 -8 -9 -10q-3 -1 -6 0q-9 0 -12 10v2q-35 113 -41 135q-15 46 -43.5 138.5t-42.5 138.5q-6 22 -19 62.5t-16 49.5h-17h-311h-221q-9 -31 -26.5 -87t-24.5 -80q-72 -229 -82 -259q-5 -17 -15.5 -50t-15.5 -50 q-4 -11 -13 -11q-3 0 -6 1q-9 2 -9 10q0 2 1 6zM303 559h10h314h209q-36 121 -64 205q-44 152 -102 338q-13 43 -40 129t-40 129q-13 39 -19 59q-22 -72 -28 -96q-14 -46 -44 -138t-44 -138q-18 -57 -54 -172t-53 -173q-19 -67 -45 -143z" />
<glyph unicode="B" horiz-adv-x="856" d="M102 18v17v162v278v332v317v238v94q0 5 4.5 8.5t10.5 3.5h127h157q87 0 103 -2q114 -12 205 -90q86 -77 114 -188q11 -49 11 -94q0 -71 -27 -136q-41 -105 -137 -170q-48 -34 -113 -51q101 -26 174.5 -103t93.5 -179q9 -42 8 -82q0 -76 -30 -146q-46 -104 -146 -166 q-88 -55 -196 -55h-99h-247q-13 0 -13 12zM129 31h53h275q98 0 172 43q98 55 147 155q33 73 33 147q0 37 -8 75q-25 111 -109 186q-86 77 -200 86q-33 2 -101 2h-250h-6h-6v-57v-318v-237v-82zM129 750h84h250q113 0 205.5 68t124.5 175q16 51 16 102q0 61 -23 122 q-38 105 -131 167q-88 60 -194 60h-99h-233v-4v-162v-281v-247z" />
<glyph unicode="C" horiz-adv-x="864" d="M104 383v19v27v42v309v271v59q6 115 80 211q74 91 189 123q52 15 104 16q61 0 121 -22q110 -39 176 -133q70 -95 70 -213q0 -12 -12.5 -12t-12.5 12q0 22 -2 32q-10 112 -88.5 197.5t-189.5 105.5q-36 7 -70 7q-81 0 -152 -37q-101 -53 -151 -154q-37 -73 -37 -156v-73 v-299v-287v-57q0 -105 55 -187q62 -97 166 -135q58 -24 122 -24q49 0 101 14q112 37 177 123q69 94 69 209q0 12 12.5 12t12.5 -12q0 -75 -27 -140q-44 -106 -139 -170q-94 -61 -206 -61h-11q-124 6 -211 76q-90 69 -129 180q-7 20 -11 41t-5 45.5t-1 40.5z" />
<glyph unicode="D" horiz-adv-x="788" d="M102 12v15v153v275v331v318v239v95q0 4 4 8t9 4h41h157q12 0 33 0.5t38 0.5t32 -1q122 -6 211 -80q89 -68 125 -180q16 -56 16 -111v-51v-280v-238v-109v-53q-6 -116 -80 -209q-77 -94 -182 -123q-56 -16 -109 -16h-30h-252q-5 0 -9 4t-4 8zM127 25h76h155q86 0 129 12 q112 31 181 119q72 87 75 204v164v224v157v174q0 116 -65 205q-68 90 -174 125q-56 16 -107 16h-30h-240v-155v-275v-329v-320v-240v-81z" />
<glyph unicode="E" horiz-adv-x="784" d="M102 27v8v147v271v329v320v239v97q0 4 4 8t9 4h182h235h220q12 0 12 -12.5t-12 -12.5h-207h-199h-219v-143v-270v-260h170h235h220q12 0 12 -13.5t-12 -13.5q-137 0 -207 2h-199h-219v-45v-320v-239v-96q41 -2 123 -2h321h181q12 0 12 -12.5t-12 -12.5h-136h-321h-180 q-7 0 -10.5 7t-0.5 13q-2 2 -2 7z" />
<glyph unicode="F" horiz-adv-x="720" d="M102 12v15v155v277v329v318v240v94q0 4 4 8t9 4h100h270h203q12 0 12 -12.5t-12 -12.5h-129h-203h-229v-2v-155v-277v-180h53h307h195q12 0 12 -12.5t-12 -12.5h-64h-307h-184v-124v-318v-240v-94q0 -12 -12.5 -12t-12.5 12z" />
<glyph unicode="G" horiz-adv-x="864" d="M102 373v67v293v293v64q0 95 48 180q59 101 159 151q77 37 161 37q35 0 71 -6q123 -22 207 -115q93 -104 96 -245q0 -12 -12.5 -12t-12.5 12q-4 72 -24 122q-46 118 -154 175q-77 44 -164 44q-32 0 -65 -6q-112 -19 -191 -104q-81 -84 -90 -197q-2 -12 -2 -69v-111v-321 v-238q0 -68 12 -115q31 -108 121 -176q96 -71 209 -71q119 0 209 69q93 67 123 174q16 53 16 103v32v240h-225q-12 0 -12 12.5t12 12.5h2h235q5 0 9 -4t4 -9v-82v-157q0 -84 -8 -127q-26 -113 -113 -192.5t-201 -94.5q-24 -3 -47 -3q-89 0 -173 43q-105 55 -157 157 q-43 82 -43 174z" />
<glyph unicode="H" horiz-adv-x="921" d="M102 12v15v153v277v329v318v239v95q0 12 12.5 12t12.5 -12v-13v-155v-277v-268h6h27h248h321h148v61v318v239v95q0 12 12 12t12 -12v-13v-155v-277v-329v-318v-240v-94q0 -12 -12 -12t-12 12v15v153v277v243h-13h-250h-321h-160q-4 0 -6 2v-38v-318v-240v-94 q0 -12 -12.5 -12t-12.5 12z" />
<glyph unicode="I" horiz-adv-x="147" d="M102 12v15v155v277v332v317v240v94q0 12 12.5 12t12.5 -12v-15v-157v-277v-329v-318v-240v-94q0 -12 -12.5 -12t-12.5 12z" />
<glyph unicode="J" horiz-adv-x="862" d="M104 244q-1 2 -1 3q0 7 12 11q10 3 14 -8q38 -97 125 -158.5t190 -66.5h11q114 0 204 61q93 65 134 168q22 59 22 133v59v252v330v287v110h-110h-244q-12 0 -12 12.5t12 12.5h125h241q6 0 10.5 -3.5t4.5 -8.5v-119v-287v-330v-253v-62q0 -67 -21 -129 q-38 -109 -131.5 -180.5t-208.5 -77.5h-21q-114 0 -208 61q-99 65 -148 183z" />
<glyph unicode="K" horiz-adv-x="1048" d="M102 12v15v155v277v329v318v240v94q0 12 13.5 12t13.5 -12v-15v-155v-277v-260h225h209q7 12 22.5 36.5t22.5 37.5q26 42 77 125t77 125q27 44 82.5 133t83.5 133q5 8 76 125q5 6 11 6q7 0 11 -6q2 -3 2 -6t-2 -6q-12 -19 -49 -78q-61 -100 -154 -250q-27 -45 -81.5 -134 t-82.5 -134q-12 -20 -35.5 -58t-35.5 -57v-6q13 -18 39 -62q26 -41 77 -122.5t76 -122.5q28 -45 83 -134.5t83 -134.5q13 -20 40 -62.5t40 -62.5q2 -3 2 -6q0 -2 -2 -6q-4 -6 -10.5 -6t-11.5 6q-5 9 -21.5 33.5t-24.5 38.5l-153 246q-28 44 -83.5 133t-82.5 133 q-12 19 -36.5 58t-37.5 59h-227h-209v-43v-318v-240v-94q0 -12 -13.5 -12t-13.5 12z" />
<glyph unicode="L" horiz-adv-x="714" d="M102 12v15v155v277v332v317v240v94q0 12 12.5 12t12.5 -12v-15v-157v-277v-329v-318v-240v-81h80h274q34 0 101 1t100 1q12 0 12 -13.5t-12 -13.5h-121h-205h-241q-5 0 -9 4t-4 8z" />
<glyph unicode="M" horiz-adv-x="1292" d="M102 12v13v151v275v329v320v239v95q0 10 9 12h3q7 0 11 -6q22 -31 29 -43q68 -102 135 -201q65 -102 182 -274q13 -20 160 -242q9 -15 27.5 -43.5t27.5 -42.5q12 16 16 24q23 34 68.5 101.5t67.5 101.5q29 46 89.5 137.5t90.5 137.5q104 151 162 241q11 17 33.5 51.5 t33.5 51.5q4 6 11 6h4q10 -2 10 -12v-13v-151v-275v-329v-320v-240v-94q0 -12 -13.5 -12t-13.5 12v13v151v275v329v320v239v54q0 -5 -4 -9q-22 -34 -67 -101t-68 -101q-30 -45 -90.5 -136.5t-89.5 -136.5q-31 -48 -91 -138t-69 -103q-11 -16 -33 -49t-33 -50q0 -5 -4 -8.5 t-8 -3.5h-2q-14 0 -14 12q-5 10 -23 37q-22 34 -67 101.5t-68 101.5q-10 16 -77.5 118t-102.5 156q-82 120 -162 240q-15 27 -45 70v-123v-275v-329v-320v-240v-94q0 -12 -12.5 -12t-12.5 12z" />
<glyph unicode="N" horiz-adv-x="1142" d="M102 12v13v153v275v329v318v241v95q0 10 9 12q2 1 4 0q6 0 10 -6q15 -23 27 -37q57 -84 102 -145q57 -86 158 -226q49 -72 186 -268q31 -45 95 -135t95 -135q28 -40 83 -120t83 -120q13 -18 55.5 -78t65.5 -92q6 -11 23 -33v123v273v329v320v239v97q0 12 12 12t12 -12 v-13v-149v-275v-329v-318v-241v-95q0 -10 -9 -12t-15 6q-15 22 -25 35q-53 73 -102 147q-8 11 -68 96t-90 130q-51 71 -186 266q-31 45 -95 136t-96 136q-27 40 -83.5 120t-84.5 120q-48 68 -118 170q-4 5 -11.5 15.5t-11.5 15.5v-125v-275v-329v-320v-240v-94 q0 -12 -12.5 -12t-12.5 12z" />
<glyph unicode="O" horiz-adv-x="878" d="M102 375v203v325v199q0 101 51.5 189.5t139.5 138.5q89 51 185 51q19 0 38 -2q118 -12 207 -86q90 -80 119 -187q16 -49 16 -114v-234v-323v-164q-2 -85 -38.5 -162t-102.5 -131q-96 -76 -209 -82q-16 -1 -31 -1q-102 0 -190 52q-101 63 -148 162q-37 78 -37 166z M129 371q0 -116 64 -201q61 -91 169 -131q60 -21 118 -20q55 0 108 18q109 36 174 125q69 94 69 209v47v274v309q1 9 1 49v34v22q0 16 -4 45.5t-11 52.5q-34 109 -126 179t-204 71h-10q-111 0 -201 -63q-94 -69 -129 -172q-18 -53 -18 -125v-86v-308v-278v-51z" />
<glyph unicode="P" horiz-adv-x="946" d="M102 12v13v155v275v331v318v239v95q0 12 15 12h12h283q85 0 110 -4q114 -12 209 -82q93 -68 145 -172q48 -97 48 -203v-16q-5 -115 -63 -215t-156 -160q-93 -61 -216 -70h-100h-260v-182v-240v-94q0 -12 -13.5 -12t-13.5 12zM129 535v2v-2zM129 547zM129 553h12h265 q73 0 110 4q110 12 205 82q91 67 138 171q39 88 39 182q0 18 -1 36q-11 110 -74.5 204.5t-163.5 145.5q-92 47 -198 47h-99h-233v-155v-275v-329v-113z" />
<glyph unicode="Q" horiz-adv-x="1021" d="M102 379v203v325v199q0 100 52 189.5t139 138.5q83 49 179 49q21 0 42 -2q114 -9 207 -86q90 -74 121 -185q14 -52 14 -116v-232v-323v-164q0 -85 -36.5 -162t-102.5 -131q-75 -60 -168 -78q31 -16 59 -51q19 -21 53 -70t54 -71q34 -38 57 -48q16 -8 31 -8q26 -3 53 6 q54 13 87.5 58t33.5 102q0 12 12 12t12 -12q0 -71 -38 -117q-35 -47 -91 -65q-31 -10 -57 -10q-21 0 -39 6q-25 8 -48.5 27.5t-37 36t-33.5 44.5q-27 38 -51 72q-33 42 -57 59q-35 23 -62 23h-14q-63 -3 -102 -45q-9 -8 -17.5 0.5t-1.5 17.5q24 24 49 35q-54 10 -114 45 q-101 63 -148 162q-37 78 -37 166zM127 375q0 -112 63 -203q67 -91 172 -129q56 -18 113 -18h8q58 0 105 16q110 37 174 125q69 94 69 209v47v274v310v33v35.5t-0.5 32.5t-2.5 35t-5 32t-8 34q-32 108 -124.5 178.5t-205.5 71.5q-119 0 -211 -65q-91 -63 -127 -172 q-20 -56 -20 -123v-86v-307v-279v-51z" />
<glyph unicode="R" horiz-adv-x="948" d="M102 8v23v211v323v299v135q0 36 1 108.5t1 109.5t1 112t1 113q0 4 4 8t9 4h12h285q73 0 110 -4q115 -15 209 -82q93 -68 144 -172q47 -96 47 -202v-17q-4 -115 -62 -215t-155 -162q-3 -1 -17 -8.5t-22 -11.5q7 -16 21.5 -49t21.5 -50q107 -245 129 -293 q12 -29 36.5 -85.5t36.5 -84.5q4 -11 -4 -16q-4 -3 -10.5 -1.5t-7.5 5.5q-8 19 -23.5 55t-23.5 54q-21 48 -63 145.5t-64 145.5q-13 28 -36 81.5t-36 81.5q-84 -34 -153 -37q-33 -2 -101 -2h-264v-96v-295v-131q0 -12 -13.5 -12t-13.5 12zM129 557h279q92 0 110 2 q114 15 205 82q93 67 139 171q39 88 38 182q0 18 -1 36q-9 112 -72 205.5t-163 144.5q-92 50 -199 50h-98h-236v-33q0 -51 -1 -152.5t-1 -152.5v-117v-215v-203z" />
<glyph unicode="S" horiz-adv-x="1028" d="M104 238q3 7 9.5 9t11.5 -3q15 -15 47 -51q4 -5 22 -24t25.5 -26.5t22.5 -22t28 -25t27 -19.5q112 -74 248 -74q4 0 4 -2h69q66 0 125 20q105 36 172 127q68 96 68 211v4v3q0 79 -33.5 151t-93.5 123q-92 76 -203 82q-23 2 -67 2.5t-58 1.5q-6 0 -6 2q-72 0 -139 27 q-105 43 -172 139q-65 95 -68 215l2 4q0 1 -1 2t-1 2q3 173 129 287q90 77 203 92q30 4 139 4q2 0 4 -2q97 -1 185 -40.5t153 -110.5q6 -6 3.5 -13t-9 -9t-12.5 3q-63 69 -149.5 107.5t-180.5 38.5q-4 0 -4 2h-72q-60 0 -122 -21q-105 -39 -172 -127q-68 -96 -68 -211v-4v-4 q0 -78 33.5 -149.5t93.5 -122.5q91 -75 203 -84q41 -2 125 -2q4 0 6 -2q74 -3 139 -29q107 -44 172 -137q66 -97 66 -217v-3v-4q0 -82 -33 -157t-94 -129q-90 -77 -203 -92q-38 -5 -139 -5h-4q-86 3 -162 33q-104 42 -183 127q-3 3 -84 90q-3 4 -3 8q0 2 1 5z" />
<glyph unicode="T" horiz-adv-x="1064" d="M103 1437.5q0 12.5 12 12.5h254h215h254h194q12 0 12 -12.5t-12 -12.5h-196h-240v-153v-277v-329v-318v-242v-94q0 -12 -12.5 -12t-12.5 12v13v155v275v329v320v239v82h-8h-196h-252q-12 0 -12 12.5z" />
<glyph unicode="U" horiz-adv-x="917" d="M102 381v63v256v330v287v121q0 12 13.5 12t13.5 -12v-4v-158v-301v-326v-231v-45q0 -99 49 -178q57 -97 162 -142q55 -23 109 -26q25 -2 73 -2q113 0 201 63q95 69 129 172q18 50 18 121v63v256v330v287v121q0 12 13.5 12t13.5 -12v-13v-180v-311v-322v-211q0 -33 -2 -47 q-6 -121 -78 -211q-73 -92 -180 -127q-59 -16 -113 -16h-67q-115 6 -211 80q-90 71 -125 180q-19 62 -19 121z" />
<glyph unicode="V" horiz-adv-x="1046" d="M104 1456q-1 2 -1 4q0 5 4.5 8.5t9.5 3.5h3q7 -2 9 -10q3 -7 8 -23t8 -24q9 -32 29 -96.5t29 -95.5q15 -47 44.5 -141.5t43.5 -141.5q54 -175 96 -317q16 -50 46.5 -149.5t45.5 -149.5q13 -42 37.5 -120.5t30.5 -99.5q7 -18 14 -47q1 2 2 6t2 5q9 30 60 192 q14 47 44 141.5t44 141.5q17 53 49.5 158.5t48.5 158.5q1 2 94 297q8 26 21.5 70t25 80.5t21.5 68.5q11 33 26 86q3 8 10 10h3q5 0 9 -3.5t4 -8.5q0 -2 -1 -4q-2 -8 -7 -24.5t-7 -24.5q-10 -31 -31 -96t-31 -97q-72 -235 -88 -282q-17 -53 -49.5 -159t-48.5 -159 q-11 -35 -29.5 -94.5t-33.5 -109.5t-29 -93q-1 -2 -70 -219q-4 -15 -13.5 -43.5t-13.5 -42.5q-3 -9 -12 -9t-12 9q-2 9 -7.5 26t-6.5 21q-33 105 -60 193q-15 47 -43 141.5t-43 141.5q-19 59 -53 169.5t-45 147.5q-11 35 -29.5 94.5t-33.5 109.5t-29 93q-12 37 -34.5 110.5 t-33.5 110.5q-11 38 -27 86z" />
<glyph unicode="W" horiz-adv-x="1939" d="M104 1456q-1 3 -1 6q0 7 10 9h4q9 0 12 -9q9 -34 14 -47q9 -32 29 -96.5t29 -95.5q11 -33 88 -283q17 -53 49 -158.5t49 -158.5q15 -50 44.5 -149.5t45.5 -149.5q13 -42 37.5 -120.5t30.5 -99.5q7 -18 14 -47q1 2 2 6t2 5q10 31 30 95.5t30 96.5q15 47 44 141.5t44 141.5 q16 53 49.5 158.5t50.5 158.5q15 49 46 148.5t46 148.5q8 26 21.5 70t25 80.5t21.5 68.5q11 33 26 86q2 2 2 4q4 4 11 4q6 3 10 -4h2v-4q3 -7 8 -23t8 -24q9 -32 29 -96.5t29 -95.5q15 -47 44 -141.5t44 -141.5q17 -53 49 -158.5t49 -158.5q39 -135 90 -299 q13 -42 37.5 -120.5t30.5 -99.5q7 -18 14 -47q1 2 2 6t2 5q10 31 30 95.5t30 96.5q15 47 44.5 141.5t43.5 141.5q77 248 100 317q15 49 46 148.5t46 148.5q8 26 21.5 70t25 80.5t21.5 68.5q11 33 26 86q4 10 12 10q3 0 6 -1q8 -3 8 -10q0 -2 -1 -5q-2 -8 -7 -24.5t-7 -24.5 q-10 -32 -31 -96.5t-31 -96.5q-72 -235 -88 -282q-17 -53 -49 -159t-49 -159q-11 -35 -29.5 -94.5t-33.5 -109.5t-29 -93q-1 -2 -70 -219q-4 -14 -13.5 -42.5t-13.5 -43.5q-3 -9 -12 -9t-12 9q-2 9 -7.5 25t-7.5 22q-11 36 -59 193q-15 47 -43.5 141.5t-42.5 141.5 q-19 59 -53 169.5t-45 147.5q-11 35 -29.5 94.5t-33.5 109.5t-29 93q-12 37 -34 110.5t-34 110.5q-7 29 -14 47q0 -2 -1 -5.5t-1 -4.5q-49 -153 -60 -193l-45 -141l-45 -141q-16 -53 -48.5 -159t-49.5 -159q-11 -35 -29.5 -94.5t-33.5 -109.5t-29 -93q-10 -33 -22 -70 t-26 -81t-22 -68q-11 -39 -27 -86q-3 -9 -12 -9t-12 9q-7 29 -15 47q-7 25 -27 90.5t-30 102.5q-11 33 -88 283q-19 59 -53 169.5t-45 147.5q-47 150 -90 297q-12 37 -34.5 110.5t-33.5 110.5q-16 48 -27 86z" />
<glyph unicode="X" horiz-adv-x="946" d="M104 18q3 6 13 25.5t16 28.5q22 41 67 121.5t68 121.5q124 223 154 279q12 20 36 62l36 63q-5 9 -15.5 27.5t-15.5 27.5l-135 246q-33 64 -152 278q-44 79 -72 134q-2 4 -2 7q0 5 6 9q4 2 8 2q6 0 9 -6q4 -8 8 -12q17 -31 52 -95.5t53 -95.5q26 -48 77.5 -144.5 t77.5 -144.5q23 -40 65 -116.5t50 -90.5q0 -1 1 -3t1 -3q15 24 29 52q23 40 67.5 120.5t67.5 120.5q76 141 153 279q13 22 37 66t37 67q5 6 11 6q8 0 12 -6q2 -3 2 -6t-2 -6q-5 -9 -15.5 -28t-15.5 -28q-78 -138 -133 -241q-35 -61 -156 -279q-12 -20 -35 -62t-34 -63 q5 -9 14 -27.5t14 -27.5l135 -246q5 -9 154 -278q28 -55 72 -134q2 -3 2 -6q0 -2 -2 -6q-4 -6 -11 -6t-12 6l-6 12q-17 31 -51.5 95t-52.5 96q-12 22 -69.5 127t-88.5 160q-21 40 -61.5 112.5t-51.5 93.5q-1 1 -2 4.5t-2 4.5q-9 -19 -29 -52q-8 -14 -133 -243 q-25 -46 -77 -138.5t-78 -138.5q-13 -23 -37.5 -67t-36.5 -66q-4 -6 -10 -6q-3 0 -7 2q-7 4 -6 9q0 3 2 7z" />
<glyph unicode="Y" horiz-adv-x="1069" d="M104 1432q-2 3 -2 6q0 7 8 10q4 2 7 2q6 0 10 -6q1 -1 2 -3t2 -3q14 -26 44 -80.5t44 -81.5q25 -46 76.5 -139.5t77.5 -139.5q98 -176 145 -264q9 -17 27.5 -49.5t27.5 -48.5q15 26 42.5 76t41.5 75q18 32 72.5 129t83.5 150q93 163 148 262q11 19 32 58t33 59q5 6 11 6 t10 -6q2 -2 2 -5t-2 -7q0 -4 -5 -9q-60 -110 -90 -161q-30 -55 -88 -158.5t-67 -120.5q-25 -44 -74.5 -132t-73.5 -132q-40 -74 -63 -111v-92v-317v-187q0 -12 -12.5 -12t-12.5 12v105v317v170l-2 4q-11 20 -41.5 76t-48.5 86q-30 56 -154 279q-47 88 -145 264 q-20 41 -66 119z" />
<glyph unicode="Z" horiz-adv-x="872" d="M104 18v2q5 10 23 43t27 52q78 156 106 209q45 92 139 276q25 50 75.5 149.5t76.5 149.5l69 135t68 135q26 49 100 197q3 5 13.5 26l15.5 31h-211h-323h-166q-12 0 -12 13.5t12 13.5h10h221h326h164q7 0 11 -7t1 -13h-2q-9 -22 -47 -95q-61 -121 -107 -209 q-94 -184 -139 -278q-89 -171 -152 -297q-47 -90 -137 -270q-17 -34 -100 -199q-25 -45 -31 -57h215h324h166q12 0 12 -12.5t-12 -12.5h-11h-225h-323h-166q-7 0 -11 6q-2 3 -1 6q0 3 1 6z" />
<glyph unicode="[" horiz-adv-x="473" d="M102 0v18v168v285v334v319v240v94q0 15 13 15h71h254q12 0 12 -13.5t-12 -13.5h-71h-242v-6v-168v-285v-334v-319v-240v-82h59h254q12 0 12 -13t-12 -13h-71h-254q-13 0 -13 14z" />
<glyph unicode="\" horiz-adv-x="710" d="M104 1456q-2 8 3.5 12.5t12.5 3t9 -9.5q16 -36 33 -82q5 -15 82 -213q85 -225 110 -290q82 -212 121 -316q18 -48 55.5 -143.5t55.5 -143.5q28 -75 78 -202q20 -58 24 -70q4 -10 -8 -13.5t-16 7.5q-5 15 -15.5 42.5t-15.5 41.5q-77 198 -82 213q-19 48 -56 145.5 t-55 145.5q-76 194 -121 315q-18 47 -54.5 142.5t-55.5 142.5q-22 59 -78 205q-9 25 -27 67z" />
<glyph unicode="]" horiz-adv-x="473" d="M103 -1q0 13 12 13h254h59v82v240v319v334v285v168v6h-242h-71q-12 0 -12 13.5t12 13.5h254h71q13 0 13 -15v-94v-240v-319v-334v-285v-168v-18q0 -14 -13 -14h-254h-71q-12 0 -12 13z" />
<glyph unicode="_" horiz-adv-x="1234" d="M103 12.5q0 12.5 12 12.5h188h328h571q12 0 12 -12.5t-12 -12.5h-586h-327h-174q-12 0 -12 12.5z" />
<glyph unicode="a" horiz-adv-x="1112" d="M106 465q14 113 81 208t169 144q93 48 199 48q13 0 25 -1q120 -6 217 -69q132 -84 186 -240v86v203q0 12 13.5 12t13.5 -12v-133v-318v-92v-6q6 -24 12 -45q7 -25 31 -111.5t37 -132.5q1 -2 1 -4q-1 -4 -5 -8q-6 -4 -12.5 -3.5t-8.5 7.5q-8 30 -25.5 92t-25.5 92 q-12 50 -27 99q-31 -102 -105 -180t-173 -113q-75 -27 -152 -27q-37 1 -75 7q-116 20 -210 91q-90 71 -134 181q-34 85 -35 173q0 26 3 52zM129 418q0 -115 55.5 -215t153.5 -158q98 -59 215 -59h2q116 0 215 57q97 59 154 158t57 211q0 111 -55 209t-150 155 q-98 60 -214 62q-5 0 -9 1q-111 0 -207 -55q-99 -57 -157.5 -155.5t-59.5 -210.5z" />
<glyph unicode="b" horiz-adv-x="888" d="M102 319v207v215v4v107v299v309q0 12 12.5 12t12.5 -12v-286v-289v-113q19 17 59 41q105 65 231 65h6q130 -2 236 -71q97 -62 153 -164t56 -217v-10q-1 -114 -62.5 -213.5t-162.5 -155.5q-96 -51 -211 -51q-63 0 -94 8q-49 10 -102 45q-100 69 -125 182q-9 35 -9 88z M127 332q0 -35 2 -53q10 -118 98 -191q44 -38 97 -53q46 -15 96 -15t96 9q65 14 107 37q97 49 159 145q62 100 62 215q0 33 -2 47q-12 112 -79.5 204t-170.5 138q-83 38 -170 38q-31 0 -62 -5q-131 -18 -233 -109v-182v-225z" />
<glyph unicode="c" horiz-adv-x="870" d="M102 418q0 12 13.5 12t13.5 -12v-33q11 -113 80 -204.5t174 -129.5q69 -26 140 -26q48 0 98 12q127 36 206 137q3 3 9.5 3t9.5 -3q4 -4 4 -8t-4 -10q-32 -40 -58 -58q-104 -87 -235 -96q-19 -1 -37 -1q-103 0 -190 48q-101 54 -162 154t-62 215zM102 424q3 37 9 76 q20 113 96.5 200t185.5 121q62 22 126 21q58 0 118 -17q132 -40 209 -139q4 -6 4 -10t-4 -8q-3 -3 -9.5 -3t-9.5 3q-6 10 -22 26q-96 99 -221 117q-34 5 -66 5q-86 0 -164 -36q-102 -51 -161 -143q-64 -98 -64 -213q0 -12 -13.5 -12t-13.5 12z" />
<glyph unicode="d" horiz-adv-x="1284" d="M106 567q15 134 93.5 246t199.5 170q111 54 235 54q14 0 30 -1q140 -7 256 -82q157 -100 219 -282v270v358v160q0 15 15 15t15 -15v-45v-287v-389v-311v-68v-4v4v-6q8 -21 15 -53q35 -122 78 -287q1 -3 1 -6q0 -5 -4 -8q-6 -5 -14.5 -3t-11.5 11q-29 109 -31 115 q-8 29 -24.5 89t-24.5 89q-2 7 -6 22.5t-6 22.5q-37 -117 -124 -208t-202 -132q-87 -31 -177 -31q-46 0 -92 8q-138 23 -243 109q-107 86 -161 214q-41 97 -40 197q0 32 4 64zM133 512v-8q1 -130 65 -244q66 -118 181 -184q115 -69 253 -70h5q135 0 250 66 q115 67 181.5 183.5t68.5 250.5q-2 131 -66 246t-176 182q-115 71 -253 73h-8q-133 0 -247 -65q-116 -66 -184.5 -181.5t-69.5 -248.5z" />
<glyph unicode="e" horiz-adv-x="897" d="M109 350q-6 40 -6 77q0 77 26 146q41 103 128.5 174.5t195.5 90.5q37 5 72 6q89 0 167 -35q114 -51 182 -154q2 -2 2 -5q0 -5 -6 -11q-11 -8 -34 -25.5t-35 -25.5q-171 -124 -230 -168q-93 -67 -245 -180q-88 -63 -105 -76q46 -52 94 -80q95 -59 209 -59l6 -2q1 0 4.5 1 t4.5 1q163 0 280 114q5 6 11.5 3.5t8.5 -8.5t-3 -11q-59 -59 -136.5 -91t-160.5 -32q-7 0 -9 2q0 -2 -6 -2q-94 0 -180 41t-145 113l-4 4l-2 2q-70 89 -84 190zM128 448q-1 -15 -1 -30q0 -96 45 -182q17 -31 33 -52q38 27 61 45q24 17 230 166q31 22 115.5 84.5t131.5 95.5 q18 13 105 76q-100 139 -264 164q-30 5 -60 5q-79 0 -155 -33q-105 -45 -170 -136q-63 -91 -71 -203z" />
<glyph unicode="f" horiz-adv-x="794" d="M102 12v123v283v332v276v80v51q9 119 88 207q78 88 193 109q34 6 67 6q89 0 168 -43q154 -90 154 -181q0 -3 -2 -7q-3 -5 -8 -7q-10 -3 -14 10q-41 102 -140 159q-75 44 -156 44q-24 0 -49 -4q-115 -16 -192 -102q-77 -81 -84 -201v-125v-176h127h244q12 0 12 -12.5 t-12 -12.5h-131h-240v-78v-333v-281v-117q0 -12 -12.5 -12t-12.5 12z" />
<glyph unicode="g" horiz-adv-x="1052" d="M106 473q12 106 75.5 196.5t160.5 137.5q87 42 185 42q13 0 25 -1q113 -6 206 -64q125 -81 174 -223v49q0 7 2 11q2 7 5 21.5t5 21.5q29 95 64 229q2 7 8 8h2q5 0 9 -3t4 -7q0 -2 -1 -4q-1 -6 -41 -150q-3 -12 -14 -53.5t-17 -65.5q-2 -2 -2 -6v-2v-16v-199 q0 -51 -1 -154.5t-1 -154.5v-272q0 -8 1 -46.5t0 -62.5t-5 -47q-13 -107 -80.5 -194t-167.5 -128q-72 -32 -154 -32q-34 0 -71 6q-126 18 -221 110q-5 5 -2.5 11t8 8t10.5 -2q57 -55 132 -83q68 -26 140 -26h15q106 5 197 63.5t137 153.5q39 83 39 172v45v238v285 q-33 -90 -100.5 -159.5t-157.5 -102.5q-69 -25 -142 -25q-36 0 -73 6q-111 19 -197 88q-84 67 -126 170q-33 80 -33 163q0 24 3 48zM127 428q0 -106 52.5 -200.5t144.5 -149.5q94 -54 204 -55h3q108 0 200 53q92 54 145.5 148t55.5 200q-2 104 -54 196.5t-141 147.5 q-93 56 -202 58h-8q-104 0 -195 -52q-93 -54 -148.5 -146.5t-56.5 -199.5zM956 612z" />
<glyph unicode="h" horiz-adv-x="806" d="M102 12v226v247v2v17v203v325v299v131q0 12 12.5 12t12.5 -12v-14v-205v-323v-258q43 96 127 151q48 31 104 43q31 8 95 8q116 0 204 -67q97 -74 121 -185q8 -35 8 -104v-291v-205q0 -12 -12 -12t-12 12v187v299q0 57 -4 86q-19 113 -107 186q-85 70 -198 70 q-47 0 -93 -9q-56 -15 -102 -45q-98 -71 -121 -176q-10 -44 -10 -102v-291v-205q0 -12 -12.5 -12t-12.5 12z" />
<glyph unicode="i" horiz-adv-x="421" d="M103 827.5q0 12.5 12 12.5h12h74q6 0 18 0.5t21.5 0.5t17.5 -1q59 -6 100.5 -50t42.5 -104v-176v-324v-174q0 -12 -13 -12t-13 12v189v323v119q0 54 -2 64q-9 55 -60 88q-33 20 -75 20h-123q-12 0 -12 12.5zM340 1215q-3 6 -3 12.5t3 12.5q6 12 22 12t22 -12q3 -6 3 -12 t-3 -13q-6 -13 -22 -13t-22 13z" />
<glyph unicode="j" horiz-adv-x="882" d="M103 -677q3 7 9.5 8.5t12.5 -3.5q51 -49 122 -65q30 -7 59 -7q40 0 79 13q111 40 154 147q18 46 18 95v20v270v279v190v217v150q0 75 10 102q23 60 74 86q37 19 84 19h123q8 0 12 -6q2 -3 2 -6t-2 -6q-4 -7 -12 -7h-131q-54 0 -93.5 -39t-39.5 -94v-84v-299v-194v-187 v-319v-86q0 -89 -47 -160q-33 -48 -82 -80t-105 -41q-24 -4 -49 -4q-40 0 -81 12q-64 20 -114 66q-4 4 -4 8q0 3 1 5zM574 1221q-3 7 -3 13t3 13q6 13 22 13t22 -13q3 -7 3 -13t-3 -13q-6 -13 -22 -13t-22 13z" />
<glyph unicode="k" horiz-adv-x="745" d="M102 -4v20v168v285v334v321v242v94q0 12 13.5 12t13.5 -12v-20v-168v-285v-334v-233h29h245q9 16 27 47.5t27 46.5q26 47 77 141.5t76 141.5q38 68 90 166q5 6 11.5 6t10.5 -6q2 -3 3 -7q0 -3 -2 -6q-9 -17 -27.5 -50.5t-27.5 -51.5q-91 -168 -156 -283 q-15 -26 -43.5 -78.5t-42.5 -78.5q63 -107 119 -211q11 -20 49 -88.5t59 -106.5q4 -7 -0.5 -12.5t-10.5 -5.5t-11 6v2q-20 36 -60 106.5t-61 106.5q-8 14 -45.5 83t-58.5 105h-27h-250v-61v-242v-94q0 -12 -13.5 -12t-13.5 12z" />
<glyph unicode="l" horiz-adv-x="147" d="M102 16v21v168v282v332v318v237v94q0 10 12.5 10t12.5 -10v-22v-168v-283v-331v-318v-237v-93q0 -12 -12.5 -12t-12.5 12z" />
<glyph unicode="m" horiz-adv-x="1869" d="M103 834.5q0 13.5 12 13.5h16h78q37 0 55 -2q59 -6 102.5 -48.5t47.5 -101.5q2 0 1 -30l-1 -29v-12q42 104 129 161q86 60 202 60q71 0 84 -2q61 -9 111 -35q102 -51 156 -156q16 -37 24 -67q31 128 142 200q86 60 200 60q72 0 86 -2q62 -10 109 -35q104 -50 155 -156 q37 -75 37 -161v-263v-217q0 -12 -12 -12t-12 12v99v313v74q0 109 -68 196q-69 90 -180 119q-41 8 -94 8q-59 0 -88 -6q-114 -22 -187 -110q-75 -87 -75 -207q0 -3 -3 -6v-263v-217q0 -12 -12 -12t-12 12v99v313v74q0 109 -68 196q-70 91 -180 119q-41 8 -92 8q-61 0 -90 -6 q-114 -22 -187 -110q-72 -83 -75 -207v-4v-304v-176q0 -12 -12.5 -12t-12.5 12v197v324v114q0 51 -8 76q-15 53 -68 82q-32 14 -73 14h-125q-12 0 -12 13.5z" />
<glyph unicode="n" horiz-adv-x="1134" d="M103 831.5q0 12.5 12 12.5h22h78q50 0 59 -2q57 -9 95.5 -54.5t38.5 -103.5v-57q46 112 141 168q63 34 104 41q31 8 92 8q62 0 91 -6q49 -8 106 -39q99 -58 143 -162q29 -68 29 -148v-266v-211q0 -12 -13.5 -12t-13.5 12v107v309v74q0 109 -63 190q-69 91 -176 119 q-41 8 -92 8q-59 0 -88 -6q-111 -19 -185 -108q-73 -85 -73 -203q0 -4 -2 -4v-312v-174q0 -10 -12.5 -10t-12.5 10v2v203v320v112q0 57 -6 74q-15 53 -68 82q-32 14 -71 14h-123q-12 0 -12 12.5z" />
<glyph unicode="o" horiz-adv-x="987" d="M109 344q-6 38 -6 75q0 66 20 130q33 97 104.5 170.5t167.5 105.5q67 23 137 23q33 0 66 -5q105 -16 190 -77q84 -62 131.5 -154t47.5 -196q0 -136 -78 -246q-58 -84 -150.5 -133.5t-195.5 -52.5h-9q-98 0 -188 44q-94 46 -156 128q-63 83 -81 188zM133 334 q22 -99 86.5 -177t157.5 -118q74 -32 155 -32q21 1 43 3q105 10 189 68q85 57 132.5 147t47.5 191q0 86 -33 159q-38 92 -117.5 157t-177.5 85q-41 8 -81 8q-59 0 -118 -17q-99 -29 -171 -101q-72 -74 -102 -174q-18 -60 -18 -120q-1 -40 7 -79z" />
<glyph unicode="p" horiz-adv-x="1210" d="M103 773q0 11 12 11h84q35 0 53 -2q52 -6 88 -49q33 -39 33 -96v-31q55 84 73 103q82 89 191 118q60 19 122 19q44 0 88 -10q107 -22 191 -93q79 -68 118 -165q32 -78 32 -160q0 -20 -2 -41q-10 -101 -67 -188t-146 -140q-97 -55 -212 -55h-5q-117 1 -215 61 q-49 31 -107 86q-10 9 -30.5 28t-30.5 28v-228v-288v-220v-86q0 -11 -11.5 -11t-11.5 11v11v133v248v299v155v4v127v213v60q0 27 -2 39q-10 53 -53 77q-30 21 -70 21h-110q-12 0 -12 11zM373 227q3 -2 71 -65q76 -66 91 -76q106 -70 231 -70q102 0 192 52q89 52 144 138.5 t61 186.5q1 13 1 25q0 89 -37 170q-42 94 -123 155q-88 65 -198 78q-26 3 -50 3q-83 0 -158 -33q-43 -20 -94 -60q-43 -35 -64 -67q-10 -15 -30.5 -45t-30.5 -44l-6 -6v-59v-244v-39z" />
<glyph unicode="q" horiz-adv-x="1234" d="M106 475q11 104 69.5 193.5t150.5 140.5q98 57 215 57t215 -57q87 -49 139 -125q7 -12 43 -63v22q0 44 8 62q19 52 66 79q40 19 78 19h112q12 0 12 -11.5t-12 -11.5h-67h-52q-49 0 -86 -37q-36 -36 -36 -92v-67q3 -3 0 -6v-58v-248v-34v-5v-266v-295v-225v-88 q0 -11 -11.5 -11t-11.5 11v12v148v258v307v125l-4 -4q-63 -63 -96 -94q-66 -66 -166 -99q-64 -20 -130 -20q-44 0 -90 9q-112 23 -198 97q-80 71 -120 172q-31 77 -31 157q0 24 3 48zM127 412q5 -103 58.5 -193.5t142.5 -144.5q97 -58 214 -58h4q118 1 216 64q40 28 57 45 l43 43q27 25 76 74v133v203q-11 17 -33.5 50t-34.5 50q-13 21 -57 61q-42 40 -96 64q-82 39 -173 39q-20 0 -40 -2q-112 -10 -203 -74q-86 -60 -133 -154q-41 -86 -41 -180v-20z" />
<glyph unicode="r" horiz-adv-x="759" d="M104 828.5q0 13.5 11 13.5h12h72h51q57 -5 98 -46.5t45 -101.5v-57v-39q42 108 129 174q89 68 205 68q12 0 12 -12.5t-12 -12.5q-53 0 -96 -14q-106 -36 -168 -125q-68 -93 -68 -209q0 -4 -2 -6v-273v-176q0 -12 -11 -12t-11 12v191v325v117q0 47 -4 70q-16 58 -62 84 q-31 16 -72 16h-118q-11 0 -11 13.5z" />
<glyph unicode="s" horiz-adv-x="563" d="M103 634.5q0 59.5 28 106.5q29 51 79.5 81t108.5 30q5 0 9 -4t4 -8q-2 2 -6.5 6t-6.5 6q117 0 197 -86q8 -9 -0.5 -18t-17.5 0q-70 76 -179 79q-12 0 -12 13q2 -2 6 -6.5t6 -6.5q-91 0 -151 -73q-34 -43 -40 -99q-1 -12 -1 -24q0 -43 18 -82q25 -51 72 -81t102 -30 q59 0 110 -26.5t81 -75.5q30 -50 32 -108v-10q0 -52 -24 -99q-26 -52 -75.5 -84t-108.5 -35h-17q-52 0 -96 16q-60 20 -106 70q-8 9 0.5 18t17.5 0q68 -74 164 -77h19q47 0 81 12q56 24 84 67q31 45 35 101q1 7 1 15q0 48 -23 91q-28 48 -76 76q-26 13 -53 19q-16 4 -50 4 q-59 3 -108.5 33t-77.5 81q-26 49 -26 108.5z" />
<glyph unicode="t" horiz-adv-x="505" d="M102 362v3v94v270v332v282v119q0 12 13.5 12t13.5 -12v-96v-268v-256h98h246q12 0 12 -12.5t-12 -12.5h-104h-240v-49v-285v-114q0 -49 12 -95q30 -110 121 -178q96 -71 209 -71q12 0 12 -12.5t-12 -12.5q-64 0 -123 20q-112 43 -176 134q-67 95 -70 208z" />
<glyph unicode="u" horiz-adv-x="800" d="M102 348v268v220q0 12 13.5 12t13.5 -12v-76v-316v-98q0 -93 41 -162q59 -101 166 -139q53 -20 107 -20q59 0 118 24q105 45 160 148q35 66 35 151v268v218q0 8 6 12q3 2 6 2l6 -2q6 -4 6 -12v-105v-317v-72q0 -118 -69 -205q-71 -97 -187 -125q-42 -10 -83 -10 q-76 0 -146 35q-108 53 -158 158q-35 69 -35 155z" />
<glyph unicode="v" horiz-adv-x="827" d="M104 829q0 3 2 7q4 6 9 8q2 1 4 1q7 0 10 -11q8 -19 24.5 -58t24.5 -59q19 -47 57.5 -141.5t57.5 -141.5q70 -172 119 -287q5 -16 12 -32.5t15.5 -37t13.5 -32.5q6 16 18 45.5t18 44.5q20 47 59 141.5t58 141.5q24 55 119 284q6 14 55 132q3 11 12 11q2 0 5 -1q3 -2 6 -8 q2 -4 2 -7v-2q-8 -19 -24.5 -58.5t-24.5 -59.5q-20 -47 -59.5 -141.5t-59.5 -141.5q-70 -172 -119 -287q-9 -25 -28.5 -72t-24.5 -59q-5 -8 -13 -8l-1 -1q-8 0 -11 9q-8 20 -24.5 59.5t-24.5 59.5q-45 113 -115 283q-23 56 -66.5 163t-49.5 123q-9 22 -28 66q-28 66 -28 67z " />
<glyph unicode="w" horiz-adv-x="1505" d="M104 829q0 3 2 7q4 6 9 8q2 1 4 1q7 0 10 -11q40 -98 47 -117q20 -46 117 -281q20 -48 58.5 -144.5t58.5 -144.5q7 -17 21.5 -50t21.5 -50q6 14 18 43.5t18 44.5q20 47 59 141.5t58 141.5t59.5 142t59.5 142q6 14 55 132q3 10 13 10q11 0 14 -10q40 -98 47 -117 q19 -46 117 -281q19 -48 58 -144.5t58 -144.5q7 -17 21.5 -50.5t21.5 -49.5q6 15 18.5 44.5t18.5 43.5q19 47 58 141.5t59 141.5t59.5 142t59.5 142q5 14 55 132q2 5 6 8q3 2 7 2h2q5 -2 8 -8q2 -4 2 -7v-2q-5 -11 -22.5 -52.5t-26.5 -65.5q-19 -47 -59.5 -140.5 t-59.5 -140.5q-84 -207 -119 -287q-9 -22 -26.5 -66t-26.5 -65q-5 -9 -13.5 -9t-11.5 9q-8 20 -24.5 59t-24.5 58q-45 113 -115 283q-23 56 -66.5 163t-49.5 123q-7 17 -22.5 52t-22.5 53q-6 -16 -18.5 -46.5t-18.5 -45.5q-20 -47 -59.5 -140.5t-59.5 -140.5 q-84 -207 -119 -287q-9 -22 -26.5 -66t-26.5 -65q-5 -9 -13.5 -9t-11.5 9q-8 19 -24.5 58t-24.5 59q-45 113 -115 283q-23 56 -66.5 163t-49.5 123q-9 22 -28 66q-28 66 -28 67z" />
<glyph unicode="x" horiz-adv-x="602" d="M104 20h2q30 59 115 211q45 86 103 187q-108 200 -115 213q-70 126 -105 192q-2 3 -2 6q0 6 8 11q4 2 8 2q6 0 9 -6q1 -2 2 -5t2 -4q100 -185 127 -235q11 -21 34 -63t34 -62q3 -5 8 -15.5t8 -15.5q7 13 49 89.5t64 117.5q55 99 102 193q5 6 11 6q8 0 12 -6q2 -3 2 -7 q0 -3 -2 -6q0 -2 -2 -4q-20 -36 -59 -107.5t-58 -107.5q-16 -30 -49.5 -92.5t-49.5 -93.5q18 -34 55 -102.5t56 -102.5q16 -28 34.5 -60.5t39.5 -71.5t33 -61q2 -3 2 -6q0 -2 -2 -6q-4 -6 -11 -6t-12 6l-4 8q-86 156 -129 236q-11 20 -33.5 61t-34.5 62q-11 22 -14 26 q-37 -68 -111 -200q-68 -128 -104 -193q-5 -6 -11 -6q-8 0 -12 6q-2 3 -2 6t2 6z" />
<glyph unicode="y" horiz-adv-x="798" d="M106 825q-2 4 -2 8q0 6 7 11q4 1 8 1q7 0 10 -5q3 -7 9 -21.5t9 -21.5q19 -42 55 -125t54 -125q22 -49 66 -147.5t65 -147.5q38 -86 53 -125q25 52 33 72q72 167 133 303q18 40 53 119.5t52 119.5q7 17 21.5 50t21.5 49q3 5 10 5q4 0 8 -1q5 -4 5 -11q0 -4 -1 -8 q-3 -7 -10 -22.5t-10 -22.5q-15 -34 -44.5 -101t-43.5 -101q-21 -48 -64 -145.5t-65 -145.5q-22 -51 -66 -152.5t-67 -152.5q-70 -160 -107 -238q-3 -10 -41 -98q-4 -7 -10 -7q-4 0 -8 3q-10 7 -4 16q11 28 20 47q10 25 88 201q15 32 42.5 95.5t41.5 94.5q-15 35 -18 41 q-19 42 -56 125t-55 125q-22 49 -65 147.5t-64 147.5q-34 72 -64 143z" />
<glyph unicode="z" horiz-adv-x="784" d="M106 18q9 13 31 39q25 32 73.5 95.5t72.5 95.5q68 88 200 260q29 39 89 115.5t90 115.5q10 13 30.5 40t30.5 40h-100h-322h-182q-12 0 -12 12.5t12 12.5h127h321h183q6 0 10 -6q2 -3 2 -6.5t-2 -6.5q-15 -18 -29 -39q-25 -31 -74 -95t-73 -95q-50 -63 -201 -260 q-29 -39 -89 -116t-89 -116q-10 -13 -31 -39t-31 -40h103h321h183q12 0 12 -12.5t-12 -12.5h-127h-322h-184q-7 0 -11 6q-2 3 -2 6t2 6z" />
<glyph unicode="{" horiz-adv-x="661" d="M104 735q-3 6 2.5 13t12.5 4h4h2h4q10 -2 29 -2q2 2 8 2h2h4q3 1 10.5 3t10.5 3q2 0 5 1t5 1q2 2 4 2l4 2q4 2 11 6t11 6q4 3 9.5 7.5t9.5 7.5q14 14 20 22q23 30 35 61q33 86 33 220v372q0 13 12 13h25h252q12 0 12 -13.5t-12 -13.5h-25h-239v-170v-125q0 -93 -3 -125 q-13 -225 -131 -287q-3 -2 -11 -5.5t-11 -4.5q28 -12 43 -22q52 -39 80 -113q33 -86 33 -223v-359h12h252q12 0 12 -13t-12 -13h-25h-252q-12 0 -12 12v2v150v243q-4 138 -39 209q-17 34 -35 58q-14 14 -22 20q-4 4 -8 6q-2 2 -6 4.5t-5 3.5q-2 1 -6 3.5t-6 3.5q-2 0 -4 2 h-2h-2q-7 4 -21 8q-3 0 -8 1t-8 1q-4 0 -4 2h-4h-8q-19 0 -27 -2h-4h-2q-7 -3 -12.5 3.5t-2.5 12.5z" />
<glyph unicode="|" horiz-adv-x="147" d="M102 12v15v155v277v332v317v240v94q0 12 12.5 12t12.5 -12v-15v-157v-277v-329v-318v-240v-94q0 -12 -12.5 -12t-12.5 12z" />
<glyph unicode="}" horiz-adv-x="661" d="M103 5q0 13 12 13h252h12v359q0 137 33 223q28 74 80 113q15 10 43 22q-3 2 -11.5 5t-11.5 5q-118 62 -131 287q-2 22 -2 125v125v170h-240h-24q-12 0 -12 13.5t12 13.5h252h24q12 0 12 -13v-372q0 -134 33 -220q12 -31 35 -61q3 -4 21 -22q4 -3 9 -7.5t9 -7.5 q4 -2 11 -6t11 -6l5 -2q2 0 4 -2q2 0 5 -1t5 -1q3 -1 10 -3t10 -3h4h3q6 0 8 -2q18 0 28 2h4h3h4q7 3 12 -4t2 -13q3 -6 -2 -12.5t-12 -3.5h-2h-5q-8 2 -26 2h-8h-4q0 -2 -5 -2q-3 0 -8 -1t-8 -1q-13 -3 -20 -8h-2h-2q-2 -2 -5 -2q-2 -1 -6 -3.5t-6 -3.5q-1 -1 -4.5 -3.5 t-5.5 -4.5q-4 -2 -8 -6q-12 -9 -23 -20q-18 -24 -35 -58q-35 -71 -39 -209v-243v-150v-2q0 -12 -12 -12h-252h-24q-12 0 -12 13z" />
<glyph unicode="~" horiz-adv-x="677" d="M102 741q0 45 21 83.5t59 56.5q40 18 81 13t75 -32q20 -13 74 -63q41 -36 75 -43q61 -7 101 30q43 40 43 97q0 12 13 12t13 -12q-2 -47 -27.5 -86t-68.5 -56q-40 -18 -86 -8q-32 6 -63 33q-13 10 -43 38.5t-55.5 44.5t-53.5 19q-63 4 -96 -32q-35 -35 -35 -95 q0 -12 -13.5 -12t-13.5 12z" />
<glyph unicode="&#xa1;" horiz-adv-x="172" d="M104 -2q0 67 2 102v256q1 55 2.5 164.5t2.5 163.5q0 218 2 324q0 159 2 239v78q0 12 12 12t12 -12q0 -16 1 -50t1 -52q0 -170 2 -256q0 -219 2 -328q0 -218 2 -324q0 -119 3 -239v-78q0 -5 -5 -10q-2 -2 -8 -2h-20q-13 0 -13 12zM105 1443q-6 13 0 25.5t22 12.5t22 -12.5 t0 -25.5t-22 -13t-22 13z" />
<glyph unicode="&#xa2;" horiz-adv-x="882" d="M102 424v4v4q0 42 15 111q29 107 109.5 187.5t187.5 109.5q48 13 88 16v47v109q0 12 12 12t12 -12v-8v-148q70 0 129 -20q118 -37 203 -138q7 -11 0 -18q-10 -10 -16 0q-19 24 -54 55q-101 85 -227 94q-10 2 -35 2v-280v-324v-202q61 0 113 14q124 39 203 137q8 8 16 0 q7 -7 0 -18q-38 -47 -88 -82q-107 -76 -244 -76v-37v-108q0 -12 -12 -12t-12 12v8v137q-104 6 -187 57q-99 57 -156 155t-57 212zM127 424q0 -36 6 -70q20 -108 93 -192.5t177 -118.5q49 -15 99 -18v290v324v190q-82 -3 -160 -43q-98 -55 -156 -145q-59 -95 -59 -209v-4v-4z " />
<glyph unicode="&#xa3;" horiz-adv-x="1087" d="M104 119q41 110 146 145q41 12 80 15v104v303v309v101q0 37 2 55q6 118 86 207q79 89 192 110q129 23 236 -38q104 -58 151 -177q3 -4 0 -9t-8 -7q-10 -3 -14 8q-35 88 -113.5 144t-171.5 59q-113 6 -211 -66q-89 -70 -114 -182q-9 -33 -9 -90v-88v-180h125h244 q12 0 12 -12.5t-12 -12.5h-131h-238v-94v-313v-134q46 -3 97 -26q52 -28 147 -119q84 -80 148 -98q53 -13 105.5 -1.5t94.5 44.5q44 33 68 83t24 105q0 12 13.5 12t13.5 -12q-3 -120 -86 -194q-40 -37 -94 -55.5t-107 -12.5q-46 4 -90.5 28t-74 52t-70.5 66t-70 59 q-52 31 -84 39q-50 12 -106 2q-59 -13 -97 -49q-41 -35 -59 -88q-3 -7 -10.5 -8t-12.5 3.5t-2 12.5z" />
<glyph unicode="&#xab;" horiz-adv-x="782" d="M104 698q-4 9 0 13q20 31 60 95t59 95q24 37 121 193q6 9 17.5 2t5.5 -17q-33 -49 -119 -188q-20 -30 -59 -92.5t-58 -93.5q37 -61 115 -183q77 -125 121 -192q4 -7 -0.5 -13t-11 -6t-11.5 6q-19 31 -59 94t-60 95q-83 134 -121 192zM497 705.5q0 4.5 3 5.5 q20 31 58 94.5t58 95.5q76 116 121 193q8 9 18.5 2t4.5 -17q-82 -129 -119 -188q-19 -30 -58 -92.5t-59 -93.5q78 -122 115 -183q20 -31 60.5 -95.5t60.5 -96.5q4 -7 0 -13t-10.5 -6t-12.5 6q-78 126 -119 189q-18 30 -118 192q-3 3 -3 7.5z" />
<glyph unicode="&#xad;" horiz-adv-x="837" d="M103 723q0 12 12 12h188h328h174q12 0 12 -12t-12 -12h-189h-327h-174q-12 0 -12 12z" />
<glyph unicode="&#xbb;" horiz-adv-x="782" d="M104 317q-4 6 0 13q21 32 61 96.5t60 95.5q37 61 115 183q-20 30 -59 93t-58 93q-37 59 -119 188q-6 10 4.5 17t18.5 -2q45 -77 121 -193q20 -32 59 -95t58 -95q3 -1 3 -5.5t-3 -7.5q-13 -21 -37.5 -59.5t-44.5 -71t-37 -61.5q-41 -63 -119 -189q-6 -6 -12.5 -6t-10.5 6z M498 330q23 36 120 192q78 122 115 183q-20 30 -59 93t-58 93q-97 157 -118 188q-4 7 0.5 13t10.5 6.5t11 -4.5q97 -156 121 -193q20 -32 60 -95t59 -95q4 -4 0 -13q-38 -58 -121 -192q-20 -32 -59.5 -95t-59.5 -94q-5 -6 -11 -6t-10.5 6t-0.5 13z" />
<glyph unicode="&#xbf;" horiz-adv-x="823" d="M111 387q18 108 98 223q53 75 78 101l71 71q91 85 146 166q3 5 9 15.5t9 15.5q0 1 1 2t1 2q0 4 2 4q1 5 3 16.5t3 16.5q8 39 11 96q8 96 8 215q0 12 12 12t12 -12q0 -166 -12 -276q-4 -51 -14 -76q-6 -17 -25 -43q-8 -14 -37 -53q-40 -51 -143 -150q-93 -93 -154 -198 q-58 -99 -61 -213q-3 -122 68 -199q42 -45 102.5 -73t124.5 -34q140 -14 233 58q47 38 82 88q37 64 37 102q0 12 13.5 12t13.5 -12q-3 -77 -78 -160q-28 -32 -68 -61q-42 -27 -79 -37q-131 -42 -261 10q-135 51 -182 154q-47 97 -24 217zM537.5 1447q-6.5 13 0 25.5 t23.5 12.5q16 0 22 -12.5t0 -25.5t-22 -13q-17 0 -23.5 13z" />
<glyph unicode="&#xc0;" horiz-adv-x="1060" d="M104 10q4 17 17 51q1 5 59 195q16 48 45 143.5t45 143.5q16 55 50 162t51 161q11 34 94 301q7 21 70 224q5 14 14 43.5t14 44.5q1 9 11.5 9t13.5 -9q2 -8 7 -24.5t7 -24.5q10 -33 30 -97.5t30 -97.5q14 -48 44 -143.5t44 -143.5q20 -65 100 -323q15 -50 45.5 -151.5 t46.5 -151.5q11 -37 35 -112t35 -112q4 -14 13 -44t13 -44q3 -12 -9 -15t-15 9q-3 8 -8.5 24.5t-8.5 24.5q-20 71 -59 193q-77 256 -88 289h-31h-299h-207q-12 0 -12 13t12 13h41h299h189q-33 103 -90 297q-37 112 -95 303q-13 42 -36.5 120.5t-30.5 102.5q-9 24 -15 48 q-4 -8 -4 -11q-10 -33 -30.5 -97t-30.5 -97q-26 -84 -88 -287q-12 -38 -47.5 -151t-55.5 -173q-93 -300 -94 -303q-3 -11 -28.5 -94.5t-40.5 -128.5q-4 -15 -13.5 -43t-13.5 -43q-2 -8 -9 -9.5t-12.5 3t-3.5 12.5zM610 1778q0 4 2 6q16 37 48.5 110.5t48.5 110.5q5 10 18 6 q8 -5 4 -18q0 -1 -1 -2t-1 -2q-36 -80 -96 -224q-8 -12 -19 -4q-11 7 -4 17z" />
<glyph unicode="&#xc1;" horiz-adv-x="1060" d="M104 10q2 8 7.5 25.5t7.5 25.5q42 132 61 195q16 48 45 143.5t45 143.5q16 55 50 162t51 161q11 34 94 301q7 21 70 224q9 25 26 88q3 9 13.5 9t13.5 -9q9 -35 14 -49q10 -33 30 -97.5t30 -97.5q14 -48 44 -143.5t44 -143.5q20 -65 100 -323q15 -50 45.5 -151.5 t46.5 -151.5q65 -210 70 -224q17 -63 26 -88q3 -12 -9 -15t-15 9q-3 8 -8.5 24.5t-8.5 24.5q-20 71 -59 193q-15 48 -44.5 144.5t-43.5 144.5h-31h-299h-207q-12 0 -12 13t12 13h39h301h189q-33 103 -90 297q-37 112 -95 303q-13 42 -36.5 120.5t-30.5 102.5q-3 8 -8.5 24 t-8.5 24q0 -2 -1 -5.5t-1 -5.5q-10 -33 -30.5 -97t-30.5 -97q-51 -168 -90 -287q-66 -218 -101 -324q-16 -50 -47 -151.5t-47 -151.5q-57 -185 -69 -223q-4 -15 -13.5 -43t-13.5 -43q-2 -8 -9.5 -9.5t-13 3t-2.5 12.5zM314 1774.5q-2 6.5 3 11.5q8 8 25 24.5t25 24.5 q95 85 186 174q5 5 8 2q3 1 10 -2q26 -26 50 -47q127 -119 186 -176q6 -5 3 -11.5t-9.5 -9t-12.5 1.5q-42 42 -51 50q-28 27 -176 165q-9 -11 -41 -38q-31 -30 -92 -89t-92 -88q-6 -5 -13 -2t-9 9.5z" />
<glyph unicode="&#xc2;" horiz-adv-x="1060" d="M104 10q2 8 7.5 25.5t7.5 25.5q42 132 61 195q16 48 45 143.5t45 143.5q16 55 50 162t51 161q11 34 94 301q7 21 70 224q9 25 26 88q3 9 13.5 9t13.5 -9q9 -35 14 -49q10 -33 30 -97.5t30 -97.5q14 -48 44 -143.5t44 -143.5q20 -65 100 -323q15 -50 45.5 -151.5 t46.5 -151.5q65 -210 70 -224q17 -63 26 -88q3 -12 -9 -15t-15 9q-3 8 -8.5 24.5t-8.5 24.5q-20 71 -59 193q-15 48 -44.5 144.5t-43.5 144.5h-31h-299h-207q-12 0 -12 13t12 13h39h301h189q-33 103 -90 297q-37 112 -95 303q-13 42 -36.5 120.5t-30.5 102.5q-3 8 -8.5 24 t-8.5 24q0 -2 -1 -5.5t-1 -5.5q-10 -33 -30.5 -97t-30.5 -97q-51 -168 -90 -287q-66 -218 -101 -324q-16 -50 -47 -151.5t-47 -151.5q-57 -185 -69 -223q-4 -15 -13.5 -43t-13.5 -43q-5 -13 -18 -9q-11 4 -7 15zM412 1993q-7 11 4 18q13 4 16 -6q2 0 2 -4q44 -100 98 -223 q4 -12 -4 -17q-4 -3 -10.5 -1.5t-7.5 5.5l-2 4q-61 141 -96 224z" />
<glyph unicode="&#xc3;" horiz-adv-x="1060" d="M104 10q13 34 17 51q42 132 61 195q39 128 90 287q45 148 101 323q83 267 94 301q49 161 70 224q4 14 13 44t13 44q3 9 12.5 9t12.5 -9q3 -8 8 -24.5t8 -24.5q11 -39 33 -109t27 -86q68 -225 88 -287q90 -298 98 -323q15 -50 47 -151.5t47 -151.5q12 -37 34.5 -112 t33.5 -112q9 -25 26 -88q4 -12 -8 -15t-16 9q-2 8 -7.5 24.5t-7.5 24.5q-10 31 -29.5 96t-29.5 97q-11 33 -88 289h-31h-301h-205q-12 0 -12 13t12 13h39h301h189q-15 49 -45.5 148.5t-46.5 148.5q-46 150 -93 303q-57 185 -69 223q-2 8 -7.5 24t-7.5 24q0 -3 -4 -11 q-8 -29 -18 -61.5t-22 -71t-19 -61.5q-14 -43 -43.5 -140t-46.5 -147q-31 -101 -100 -324q-18 -53 -95 -303q-15 -43 -69 -223q-16 -47 -27 -86q-3 -8 -10.5 -9.5t-13 3t-3.5 12.5zM295 1810q0 45 21 83.5t59 56.5q81 38 155 -19q20 -13 74 -63q41 -36 76 -43q60 -7 100 30 q43 40 43 97q0 12 13.5 12t13.5 -12q-2 -47 -27.5 -86t-68.5 -56q-40 -18 -86 -8q-33 6 -64 33q-13 10 -42.5 38.5t-55 44.5t-53.5 19q-64 4 -97 -32q-34 -34 -34 -95q0 -12 -13.5 -12t-13.5 12z" />
<glyph unicode="&#xc4;" horiz-adv-x="1060" d="M104 10q2 8 7.5 25.5t7.5 25.5q42 132 61 195q16 48 45 143.5t45 143.5q16 55 50 162t51 161q15 50 47 150.5t47 150.5q13 44 38.5 124t31.5 100q4 14 13 44t13 44q3 9 13 9t12 -9q3 -8 8 -24.5t8 -24.5q11 -39 33 -109t27 -86q14 -48 44 -143.5t44 -143.5 q73 -242 100 -323q15 -50 45.5 -151.5t46.5 -151.5q65 -210 70 -224q17 -63 26 -88q3 -12 -9 -15t-15 9q-3 8 -8.5 24.5t-8.5 24.5q-10 31 -29.5 96t-29.5 97q-15 48 -44.5 144.5t-43.5 144.5h-31h-301h-205q-12 0 -12 13t12 13h39h301h189q-16 49 -46 148.5t-46 148.5 q-46 150 -93 303q-3 11 -28.5 94.5t-40.5 128.5q-6 24 -15 48q0 -2 -1 -5.5t-1 -5.5q-10 -33 -30.5 -97t-30.5 -97q-14 -43 -43.5 -140t-46.5 -147q-15 -48 -32 -103t-37.5 -119.5t-31.5 -101.5q-16 -50 -47 -151.5t-47 -151.5q-57 -185 -69 -223q-4 -15 -13.5 -43 t-13.5 -43q-5 -13 -18 -9q-11 4 -7 15zM338 1877q-6 13 0 25.5t22 12.5q17 0 23.5 -12.5t0 -25.5t-23.5 -13q-16 0 -22 13zM723 1877q-6 13 0 25.5t22 12.5t22 -12.5t0 -25.5t-22 -13t-22 13z" />
<glyph unicode="&#xc5;" horiz-adv-x="1060" d="M104 10q13 34 17 51q42 132 61 195q39 128 90 287q45 148 101 323q83 267 94 301q49 161 70 224q4 14 13 44t13 44q3 9 12.5 9t12.5 -9q5 -14 14 -49q10 -33 31 -97.5t31 -97.5q68 -225 88 -287q90 -298 98 -323q15 -50 47 -151.5t47 -151.5q12 -37 34.5 -112t33.5 -112 q9 -25 26 -88q4 -12 -8 -15t-16 9q-2 8 -7.5 24.5t-7.5 24.5q-10 31 -29.5 96t-29.5 97q-11 33 -88 289h-2h-29h-301h-205q-12 0 -12 13t12 13h39h301h189q-15 49 -45.5 148.5t-46.5 148.5q-46 150 -93 303q-57 185 -69 223q-2 8 -7.5 24t-7.5 24q-1 -2 -2 -5.5t-2 -5.5 q-8 -29 -18 -61.5t-22 -71t-19 -61.5q-14 -43 -43.5 -140t-46.5 -147q-31 -101 -100 -324q-18 -53 -95 -303q-15 -43 -69 -223q-5 -14 -14.5 -42.5l-14.5 -43.5q-2 -8 -9 -9.5t-12.5 3t-3.5 12.5zM410.5 1854q-17.5 59 5.5 114q23 56 77 85.5t113 17.5t97 -59t38 -107 q0 -72 -47 -119q-43 -43 -104 -50.5t-111 25.5q-51 34 -68.5 93zM428 1894q5 -57 48.5 -96.5t101.5 -38.5q57 3 97.5 45.5t41.5 100.5q0 12 -2 18q-7 57 -53 93.5t-105 31.5q-57 -6 -94.5 -51.5t-34.5 -102.5z" />
<glyph unicode="&#xc6;" horiz-adv-x="1722" d="M104 18q1 1 5 8t6 9q77 122 82 131q24 37 71 111.5t70 111.5q21 33 82.5 130t93.5 149q30 48 92 144t92 144q26 43 81 129t81 129q24 36 66 102.5t53 84.5q7 12 22.5 35.5t22.5 36.5v2h2q4 4 8 4h189h241h226q12 0 12 -13.5t-12 -13.5h-211h-207h-223v-133v-275v-276h125 h331h185q12 0 12 -13.5t-12 -13.5h-140h-329h-172v-34v-328v-250v-98v-2h125h331h185q12 0 12 -13.5t-12 -13.5h-140h-329h-187q-7 0 -10 7.5t0 13.5q-2 2 -2 8v6v139v275v84h-41h-311h-203l-4 2l-10 -15q-60 -98 -164 -260q-20 -31 -59 -92.5t-58 -91.5q-8 -14 -24.5 -39.5 t-20.5 -32.5q-5 -6 -11.5 -6t-11 5.5t-0.5 12.5zM477 561h43h311h191v227v330v248v55q-11 -18 -33.5 -53.5t-34.5 -54.5q-24 -37 -72 -111.5t-71 -111.5q-51 -84 -176 -279q-23 -37 -49.5 -79t-58.5 -92t-50 -79z" />
<glyph unicode="&#xc7;" horiz-adv-x="878" d="M104 408.5v39v35.5v314v276q0 42 2 60q6 121 82 215q73 92 190.5 125t227.5 -7q111 -42 180 -135q69 -96 72 -217q0 -12 -13 -12t-14 12v33q-12 115 -91.5 201t-192.5 108q-121 22 -225 -33q-103 -52 -154 -153q-37 -75 -37 -160v-74v-303v-293v-57q0 -108 55 -190 q64 -99 168 -140q117 -43 228 -8q112 36 180 125q69 94 69 211q0 12 13.5 12t13.5 -12q0 -69 -29 -141q-46 -110 -141 -172q-92 -61 -196 -64q-12 -34 -37.5 -102.5t-38.5 -102.5q57 -8 95 -50t38 -99v-2q0 -44 -25 -82t-65 -55q-46 -20 -94.5 -8t-81.5 51q-7 7 0 18 q3 3 9 3t9 -3q27 -33 66.5 -44.5t78.5 5.5q35 15 55.5 46t20.5 69v2q0 51 -36 87t-87 38q-6 0 -10.5 5t-1.5 11v2q28 74 76 213q-117 6 -209 76q-93 72 -131 184q-6 17 -9.5 36.5t-5.5 33.5t-3 38t-1 34.5z" />
<glyph unicode="&#xc8;" horiz-adv-x="796" d="M102 27v6v139v272v332v326v248v96q0 6 4 10t9 4h186h238q38 0 112.5 -1t112.5 -1q12 0 12 -12t-12 -12h-211h-203h-223v-131v-273v-274h125h328h184q12 0 12 -12.5t-12 -12.5h-139h-326h-172v-35v-325v-246v-98h125h328q30 0 92 -1t92 -1q12 0 12 -12.5t-12 -12.5h-139 h-326h-184q-7 0 -10.5 7t-0.5 13q-2 2 -2 7zM418 1692q0 1 1 3t1 3q56 127 96 221q5 11 19 6q11 -7 4 -18q0 -2 -2 -4q-16 -37 -48.5 -112t-48.5 -112q-7 -11 -18 -4q-8 5 -4 17z" />
<glyph unicode="&#xc9;" horiz-adv-x="796" d="M102 27v6v139v272v332v326v248v96q0 14 15 14h184h240q37 0 111.5 -1t111.5 -1q12 0 12 -12t-12 -12h-211h-203h-221v-131v-273v-274h125h326h184q12 0 12 -12.5t-12 -12.5h-137h-328h-170v-35v-325v-246v-98h125h326q30 0 92 -1t92 -1q12 0 12 -12.5t-12 -12.5h-137 h-328h-182q-9 0 -12.5 7t-0.5 13q0 1 -1 3.5t-1 3.5zM379 1907q-4 13 4 18q15 5 18 -6q2 -2 2 -4q82 -185 99 -223q4 -11 -6 -17q-3 -3 -9.5 -1.5t-7.5 5.5l-2 4q-70 161 -98 224z" />
<glyph unicode="&#xca;" horiz-adv-x="796" d="M102 27v6v139v272v332v326v248v96q0 14 15 14h184h240q37 0 111.5 -1t111.5 -1q12 0 12 -12t-12 -12h-211h-203h-221v-131v-273v-274h125h326h184q12 0 12 -12.5t-12 -12.5h-137h-328h-170v-35v-325v-246v-98h125h326q30 0 92 -1t92 -1q12 0 12 -12.5t-12 -12.5h-137 h-328h-182q-9 0 -12.5 7t-0.5 13q0 1 -1 3.5t-1 3.5zM191.5 1688.5q-1.5 6.5 3.5 11.5q9 8 26 24t25 23q31 29 92 87.5t92 88.5q7 3 10 2q4 3 9 -2q9 -8 26 -24t25 -23q30 -29 91.5 -88t92.5 -88q6 -5 3.5 -11.5t-8.5 -9t-11 1.5q-18 16 -52 50q-30 28 -88 83t-88 82 q-7 -7 -21 -19.5t-20 -18.5q-31 -29 -93.5 -88t-92.5 -89q-6 -5 -13 -2t-8.5 9.5z" />
<glyph unicode="&#xcb;" horiz-adv-x="796" d="M102 27v6v139v272v332v326v248v96q0 6 4 10t9 4h186h238q38 0 112 -1t111 -1q8 0 12 -6t0 -12t-12 -6h-209h-203h-223v-131v-273v-274h125h328h182q8 0 12 -6t0 -12.5t-12 -6.5h-137h-326h-172v-35v-325v-246v-98h125h328q31 0 92 -1t90 -1q8 0 12 -6.5t0 -12.5t-12 -6 h-137h-326h-184q-7 0 -10.5 7t-0.5 13q-2 2 -2 7zM209 1791q-6 13 0 25.5t22 12.5q17 0 23.5 -12.5t0 -25.5t-23.5 -13q-16 0 -22 13zM594 1791q-6 13 0 25.5t22 12.5t22 -12.5t0 -25.5t-22 -13t-22 13z" />
<glyph unicode="&#xcc;" horiz-adv-x="249" d="M104 1894q-4 13 5 19q15 5 18 -4q0 -1 1 -3t1 -3q49 -111 96 -222q6 -11 -4 -18q-3 -3 -9 -1.5t-7 5.5l-2 4q-17 38 -99 223zM203 0v10v148v276v334v324v245v99q0 12 12 12t12 -12v-11v-147v-277v-333v-326v-244v-98q0 -12 -12 -12t-12 12z" />
<glyph unicode="&#xcd;" horiz-adv-x="249" d="M102 0v10v148v276v334v324v245v99q0 12 13.5 12t13.5 -12v-11v-147v-277v-333v-326v-244v-98q0 -12 -13.5 -12t-13.5 12zM104 1681q2 3 2 5q82 185 99 223q3 8 16 4q12 -8 4 -19q0 -2 -2 -4q-23 -54 -96 -223q-1 -4 -7.5 -5.5t-10.5 1.5q-8 5 -5 18z" />
<glyph unicode="&#xce;" horiz-adv-x="620" d="M106 1672q-8 9 0 16q25 25 52 49q121 113 184 174q4 4 8 4q6 0 10 -4q29 -30 52 -47q30 -30 91.5 -88.5t92.5 -87.5q6 -5 3.5 -11.5t-9 -8.5t-12.5 3q-24 21 -50 47q-29 27 -89 83t-89 83q-12 -15 -41 -39q-63 -61 -184 -174q-10 -10 -19 1zM338 0v10v148v276v334v324 v245v99q0 12 13.5 12t13.5 -12v-11v-147v-277v-333v-326v-244v-98q0 -12 -13.5 -12t-13.5 12z" />
<glyph unicode="&#xcf;" horiz-adv-x="557" d="M105.5 1778q-6.5 13 0 26t23.5 13q16 0 22 -13t0 -26t-22 -13q-17 0 -23.5 13zM307 0v10v148v276v334v324v245v99q0 12 13.5 12t13.5 -12v-11v-147v-277v-333v-326v-244v-98q0 -12 -13.5 -12t-13.5 12zM490 1778q-6 13 0 26t22 13t22 -13t0 -26t-22 -13t-22 13z" />
<glyph unicode="&#xd0;" horiz-adv-x="1038" d="M103 757.5q0 12.5 12 12.5h2h223v25v325v244v96q0 5 4 9t8 4h43h158h106q119 -6 215 -80q91 -73 127 -185q17 -63 17 -112v-54v-284v-244v-108v-56q-9 -123 -82 -213q-73 -92 -186 -127q-56 -16 -109 -16h-33h-256q-4 0 -8 4t-4 8v14v158v281v286h-225q-12 0 -12 12.5z M365 20h75h160q84 0 133 13q107 27 182 121q76 95 76 208q1 24 1 52t-0.5 62t-0.5 52v230v157v181q0 118 -65 207q-75 98 -178 127q-52 18 -107 18h-33h-243v-2v-158v-280v-238h225q12 0 12 -12.5t-12 -12.5h-2h-223v-73v-324v-244v-84z" />
<glyph unicode="&#xd1;" horiz-adv-x="1161" d="M102 14v13v155v281v336v321v246v96q0 9 10 11.5t15 -5.5q12 -18 27 -36q77 -112 104 -150t80.5 -114.5t79.5 -114.5q31 -45 95 -135.5t95 -135.5q105 -153 193 -276q28 -41 84.5 -122t85.5 -122q68 -94 121 -172q3 -4 7.5 -11t8 -12.5t6.5 -9.5v123v279v336v323v244v96 q0 12 13.5 12t13.5 -12v-10v-154v-278v-334v-324v-245v-97q0 -10 -9.5 -12t-15.5 6q-19 29 -26 37q-18 24 -53 75t-52 75q-8 11 -68.5 97t-91.5 132q-157 225 -188 270q-33 46 -97.5 138.5t-97.5 138.5q-47 69 -170 241q-15 21 -56 82t-64 93q-4 5 -11.5 16t-11.5 16v-129 v-278v-336v-324v-243v-97q0 -12 -13.5 -12t-13.5 12zM344 1743q4 103 82 139q80 36 154 -18q15 -10 39.5 -33t33.5 -31q44 -39 76 -43q55 -9 100 29q43 40 43 96q0 12 13.5 12t13.5 -12q-2 -46 -27 -84t-67 -57q-49 -17 -88 -6q-33 6 -64 30q-12 10 -42.5 40t-55.5 46 t-53 19q-62 4 -96 -33q-35 -35 -35 -94q0 -12 -13.5 -12t-13.5 12z" />
<glyph unicode="&#xd2;" horiz-adv-x="888" d="M102 373v205v331v201q0 103 52 193t141 141q107 61 225 49q120 -12 211 -88q94 -81 123 -188q14 -52 14 -117v-238v-327v-166q0 -86 -37.5 -165.5t-103.5 -133.5q-93 -75 -213 -84q-122 -9 -225 53q-105 65 -150 164q-37 78 -37 170zM127 369q0 -116 66 -207 q68 -93 174 -131q110 -40 229 -4q111 36 176 129q69 93 72 213v45v280v314v29.5v31.5t-0.5 28t-1.5 31t-3 28t-5 30t-7 28q-34 111 -127 182t-208 72q-121 3 -213 -65q-97 -69 -132 -174q-20 -59 -20 -127v-88v-312v-284v-49zM354 1925q-4 12 4 17q11 7 19 -5q0 -2 2 -4 q43 -96 96 -223q8 -12 -4 -16q-12 -8 -16 4q-2 0 -2 4q-82 185 -99 223z" />
<glyph unicode="&#xd3;" horiz-adv-x="888" d="M102 373v205v331v201q0 103 52 193t141 141q107 61 225 49q120 -12 211 -88q94 -81 123 -188q14 -52 14 -117v-238v-327v-166q0 -86 -37.5 -165.5t-103.5 -133.5q-93 -75 -213 -84q-122 -9 -225 53q-105 65 -150 164q-37 78 -37 170zM127 369q0 -116 66 -207 q68 -93 174 -131q110 -40 229 -4q111 36 176 129q69 93 72 213v45v280v314v29.5v31.5t-0.5 28t-1.5 31t-3 28t-5 30t-7 28q-34 111 -127 182t-208 72q-121 3 -213 -65q-97 -69 -132 -174q-20 -59 -20 -127v-88v-312v-284v-49zM473 1710l2 4q53 123 98 223q2 5 8 6.5t11 -1.5 q8 -5 4 -17l-2 -4q-53 -123 -98 -223q-1 -4 -7.5 -5.5t-9.5 1.5q-10 3 -6 16z" />
<glyph unicode="&#xd4;" horiz-adv-x="888" d="M102 373v205v331v201q0 102 52.5 192.5t140.5 141.5q110 61 227 49q118 -12 209 -88q93 -77 123 -188q14 -43 14 -117v-238v-327v-166q0 -87 -37 -166t-104 -133q-93 -75 -213 -84q-123 -9 -223 53q-102 60 -152 164q-37 78 -37 170zM129 369q0 -115 64 -207 q68 -93 174 -131q111 -41 229 -4q109 36 178 129q70 95 70 213v45v280v314v29.5v31.5t-0.5 28t-1.5 31t-3 28t-5 30t-7 28q-32 111 -125 182t-208 72q-120 3 -215 -65q-94 -69 -132 -174q-18 -53 -18 -127v-88v-312v-284v-49zM242 1700.5q-9 8.5 0 17.5q8 8 24.5 23.5 t24.5 23.5q95 89 186 174q3 5 8 5q6 0 11 -5q16 -14 49 -47q31 -28 93 -86.5t93 -87.5q9 -9 0 -17.5t-18 -0.5q-33 33 -51 47q-31 29 -177 166q-6 -6 -20 -19t-21 -20q-121 -113 -184 -174q-9 -8 -18 0.5z" />
<glyph unicode="&#xd5;" horiz-adv-x="888" d="M102 373v205v331v201q0 103 52 193t141 141q107 61 225 49q120 -12 211 -88q94 -81 123 -188q14 -52 14 -117v-238v-327v-166q0 -86 -37.5 -165.5t-103.5 -133.5q-93 -75 -213 -84q-122 -9 -225 53q-105 65 -150 164q-37 78 -37 170zM127 369q0 -116 66 -207 q68 -93 174 -131q110 -40 229 -4q111 36 176 129q69 93 72 213v45v280v314v29.5v31.5t-0.5 28t-1.5 31t-3 28t-5 30t-7 28q-34 111 -127 182t-208 72q-121 3 -213 -65q-97 -69 -132 -174q-20 -59 -20 -127v-88v-312v-284v-49zM209 1745q0 45 21 83t59 56q81 37 155 -18 q11 -8 72 -64q41 -36 78 -43q56 -6 98 29q42 39 45 98q0 12 12.5 12t12.5 -12q0 -47 -25.5 -85.5t-68.5 -55.5q-40 -18 -86 -8q-32 5 -66 32q-14 10 -42.5 38.5t-53.5 45t-55 19.5q-63 4 -97 -33q-35 -35 -35 -94q0 -12 -12 -12t-12 12z" />
<glyph unicode="&#xd6;" horiz-adv-x="888" d="M102 373v205v331v201q0 103 52 193t141 141q107 61 225 49q120 -12 211 -88q94 -81 123 -188q14 -52 14 -117v-238v-327v-166q0 -86 -37.5 -165.5t-103.5 -133.5q-93 -75 -213 -84q-122 -9 -225 53q-105 65 -150 164q-37 78 -37 170zM127 369q0 -116 66 -207 q68 -93 174 -131q110 -40 229 -4q111 36 176 129q69 93 72 213v45v280v314v29.5v31.5t-0.5 28t-1.5 31t-3 28t-5 30t-7 28q-34 111 -127 182t-208 72q-121 3 -213 -65q-97 -69 -132 -174q-20 -59 -20 -127v-88v-312v-284v-49zM279 1807q-6 13 0 25.5t22 12.5t22 -12.5 t0 -25.5t-22 -13t-22 13zM664 1807q-6 13 0 25.5t22 12.5t22 -12.5t0 -25.5t-22 -13t-22 13z" />
<glyph unicode="&#xd7;" horiz-adv-x="638" d="M106 975q-9 9 0.5 18.5t18.5 1.5l135 -135l100 -102l113 112l123 123q6 6 12.5 3.5t7.5 -9t-4 -12.5l-133 -133l-100 -101l110 -112l123 -123q6 -5 3.5 -11.5t-9 -9t-12.5 1.5l-133 134l-101 102l-112 -113l-123 -123q-9 -8 -17 1t1 18l133 133l100 100l-113 113z" />
<glyph unicode="&#xd9;" horiz-adv-x="929" d="M102 391v64v262v334v290v123q0 12 13.5 12t13.5 -12v-4v-160v-305v-331v-236v-45q0 -100 49 -182q62 -101 164 -144q58 -23 111 -26q25 -2 75 -2q116 0 205 65q92 65 131 174q19 65 19 123v64v260v336v290v123q0 12 13 12t13 -12v-10v-184v-318v-325v-215q0 -34 -2 -50 q-6 -120 -80 -212q-69 -91 -182 -130q-59 -16 -115 -16h-67q-119 6 -215 80q-92 73 -127 184q-19 65 -19 123zM385 1905q-4 11 6 16q3 3 9.5 1.5t7.5 -5.5q0 -1 1 -2t1 -2q16 -37 49 -111.5t49 -111.5q5 -14 -6 -17q-3 -3 -9.5 -1.5t-7.5 5.5q-2 2 -2 4q-28 63 -98 224z" />
<glyph unicode="&#xda;" horiz-adv-x="929" d="M102 391v64v262v334v290v123q0 12 12.5 12t12.5 -12v-4v-160v-305v-331v-236v-45q0 -97 51 -182q58 -99 164 -144q58 -23 111 -26q25 -2 75 -2q116 0 205 65q93 68 131 174q19 65 19 123v64v260v336v290v123q0 12 12 12t12 -12v-10v-184v-318v-325v-215v-50 q-6 -120 -80 -212q-74 -93 -184 -130q-59 -16 -115 -16h-67q-117 6 -213 80q-90 72 -129 184q-17 58 -17 123zM494 1690l2 4q53 123 98 223q1 4 7 5.5t9 -1.5q10 -5 6 -16l-2 -4q-70 -161 -98 -224q-1 -4 -7.5 -5.5t-10.5 1.5q-9 3 -4 17z" />
<glyph unicode="&#xdb;" horiz-adv-x="929" d="M102 387v64v262v334v290v123q0 12 13.5 12t13.5 -12v-4v-160v-305v-332v-235v-45q0 -100 49 -182q62 -101 164 -144q58 -23 111 -26q25 -2 75 -2q116 0 205 65q92 65 131 174q19 65 19 123v64v260v336v290v123q0 12 13 12t13 -12v-10v-184v-318v-325v-215q0 -34 -2 -50 q-6 -121 -80 -213q-68 -90 -182 -129q-59 -16 -115 -16h-67q-119 6 -215 80q-92 73 -127 184q-19 65 -19 123zM260 1694q36 32 51 47q34 33 185 174q4 4 10 4t8 -4q18 -14 51 -47q31 -29 92.5 -87t92.5 -87q6 -6 3.5 -12.5t-9 -8.5t-11.5 2q-9 8 -26 24t-25 23 q-29 27 -87.5 82.5t-88.5 83.5q-29 -24 -41 -39q-180 -168 -186 -174q-9 -8 -18.5 1t-0.5 18z" />
<glyph unicode="&#xdc;" horiz-adv-x="929" d="M102 385v64v262v333v291v123q0 12 13.5 12t13.5 -12v-4v-160v-305v-332v-235v-45q0 -100 49 -182q62 -101 164 -144q58 -23 111 -26q25 -2 75 -2q116 0 205 65q92 65 131 174q19 65 19 123v64v260v335v291v123q0 12 13 12t13 -12v-10v-184v-318v-325v-215q0 -34 -2 -50 q-6 -121 -80 -213q-68 -90 -182 -129q-59 -16 -115 -16h-67q-119 6 -215 80q-92 73 -127 184q-19 65 -19 123zM302 1780q-6 13 0 26t22 13t22 -13t0 -26t-22 -13t-22 13zM685 1780q-6 13 0 26t22 13t22 -13t0 -26t-22 -13t-22 13z" />
<glyph unicode="&#xdd;" horiz-adv-x="1085" d="M104 1456q-4 7 0.5 12.5t11 5.5t11.5 -6q1 -1 2 -3t2 -3q16 -28 45 -82.5t45 -81.5q20 -36 73.5 -133t82.5 -151q15 -27 67.5 -122t81.5 -147q9 -19 30 -55.5t24 -42.5q6 11 37.5 67t48.5 85q9 16 68 122t89 162q25 44 76 133.5t76 133.5q22 45 65 118q5 6 11.5 6 t11 -5.5t0.5 -12.5q-4 -4 -4 -8q-87 -154 -94 -166q-40 -73 -158 -283q-24 -44 -74.5 -133t-75.5 -133q-10 -19 -31.5 -57t-31.5 -58v-92v-323v-189q0 -8 -6 -12t-12.5 0t-6.5 12v105v323v172q-1 1 -2 3.5t-2 3.5l-45 81t-45 82q-25 47 -77.5 141.5t-78.5 141.5 q-98 180 -149 270q-8 16 -66 119zM582 1710q16 37 48.5 111.5t49.5 111.5q0 2 2 4q1 4 7 6t9 -1q11 -5 7 -17q-16 -38 -99 -223l-2 -4q-1 -4 -7.5 -5.5t-10.5 1.5q-8 3 -4 16z" />
<glyph unicode="&#xde;" horiz-adv-x="1175" d="M105 213q-4 6 0 12t12 6h82h118v238v59h-200q-12 0 -12 12.5t12 12.5h18h182v250v321v240v94q0 4 4 8t9 4h37h292q87 0 140 -14q112 -27 198 -104q87 -76 128 -187t26 -227q-13 -113 -80.5 -208t-169.5 -148q-105 -54 -217 -54h-94h-238h-8v-194v-103h172h193 q12 0 12 -12t-12 -12h-84h-281v-113v-94q0 -12 -13.5 -12t-13.5 12v20v166v21h-8h-192q-8 0 -12 6zM344 553h18h281q82 0 123 8q113 22 201 92q91 78 129 176q46 106 30 228q-13 110 -80.5 203t-168.5 143q-90 43 -195 43h-102h-236v-8v-166v-283v-334v-102z" />
<glyph unicode="&#xe0;" d="M106 498q13 115 81.5 211t172.5 147q106 53 226.5 46t218.5 -71q136 -86 188 -241v88v203q0 12 13.5 12t13.5 -12v-133v-322v-92v-6v3v-5q6 -21 12 -45q12 -41 34 -123t34 -123q2 -8 -3.5 -12.5t-12.5 -3t-9 9.5q-8 30 -24.5 91.5t-24.5 92.5q-8 25 -29 100 q-31 -103 -106 -182.5t-176 -114.5q-110 -40 -228.5 -20t-210.5 94q-92 72 -138 182t-32 226zM131 451q-2 -114 54.5 -215.5t154.5 -159.5q100 -60 218 -61t220 59q98 57 155.5 156.5t59.5 215.5q-2 113 -57.5 212t-151.5 157q-99 60 -216.5 62t-219.5 -56 q-99 -58 -158 -157t-59 -213zM598 1184q0 4 2 4q37 91 96 223q4 11 19 6q8 -5 4 -18q0 -1 -1 -2t-1 -2q-17 -37 -50 -112t-49 -112q-4 -12 -16 -4q-11 7 -4 17z" />
<glyph unicode="&#xe1;" d="M106 498q13 115 81.5 211t172.5 147q106 53 226.5 46t218.5 -71q136 -86 188 -241v88v203q0 12 13.5 12t13.5 -12v-133v-322v-92v-6v3v-5q6 -21 12 -45q12 -41 34 -123t34 -123q2 -8 -3.5 -12.5t-12.5 -3t-9 9.5q-26 100 -51 184q-9 36 -27 100q-31 -103 -106 -182.5 t-176 -114.5q-110 -40 -228.5 -20t-210.5 94q-92 72 -138 182t-32 226zM129 451q0 -115 56.5 -216t154.5 -159q100 -60 218 -61t220 59q98 57 155.5 157t57.5 215q0 113 -55.5 212t-151.5 157q-99 60 -216.5 62t-219.5 -56q-99 -58 -158.5 -156.5t-60.5 -213.5zM406 1399 q-4 13 4 18q14 5 18 -6q2 -2 2 -4q45 -100 98 -223q4 -11 -6 -17q-3 -3 -9 -1.5t-7 5.5q-2 2 -2 5q-16 37 -49 111.5t-49 111.5z" />
<glyph unicode="&#xe2;" d="M106 498q14 116 81 211.5t171 146.5q106 53 226.5 46t220.5 -71q137 -89 188 -241v88v203q0 12 12.5 12t12.5 -12v-133v-322v-92v-6v2l2 -4q6 -21 12 -45q12 -41 34 -123t34 -123q2 -8 -3.5 -12.5t-12.5 -3t-9 9.5q-25 83 -51 184q-4 15 -13.5 48t-13.5 52 q-33 -104 -107.5 -183t-174.5 -114q-110 -40 -229.5 -20t-211.5 94q-91 72 -136.5 182t-31.5 226zM129 451q-1 -114 56 -215t155 -160q100 -60 218 -61t218 59q99 57 157 157t58 215q0 112 -56 211t-151 158q-100 60 -218 62t-218 -56q-100 -57 -159 -156t-60 -214z M353 1181q-2 6 3 11q12 12 52 47q30 30 92 88t92 88q4 2 10 2t8 -2q8 -8 26 -24.5t26 -24.5q121 -113 184 -174q6 -5 3 -11.5t-9.5 -8.5t-12.5 2l-49 49q-117 109 -176 166q-7 -7 -21 -20t-20 -19q-127 -119 -186 -176q-6 -5 -13 -2t-9 9z" />
<glyph unicode="&#xe3;" d="M106 498q14 116 81 211.5t171 146.5q106 53 226.5 46t220.5 -71q137 -89 188 -241v88v203q0 12 12.5 12t12.5 -12v-133v-322v-92v-6v2l2 -4q6 -21 12 -45q12 -41 34 -123t34 -123q2 -8 -3.5 -12.5t-12.5 -3t-9 9.5q-25 83 -51 184q-4 15 -13.5 48t-13.5 52 q-33 -104 -107.5 -183t-174.5 -114q-110 -40 -229.5 -20t-211.5 94q-91 72 -136.5 182t-31.5 226zM129 451q-1 -114 56 -215t155 -160q100 -60 218 -61t218 59q99 57 157 157t58 215q0 112 -56 211t-151 158q-100 60 -218 62t-218 -56q-100 -57 -159 -156t-60 -214z M324 1217q4 103 82 139q79 35 153 -19q20 -13 74 -63q44 -39 78 -43q53 -10 98 29q43 40 43 96q0 8 7 12t13.5 0t6.5 -12q0 -46 -26 -84t-69 -55q-48 -20 -88 -9q-28 5 -63 33q-13 10 -43 38.5t-55.5 44.5t-53.5 19q-63 4 -96 -32q-35 -35 -35 -94q0 -12 -13 -12t-13 12z " />
<glyph unicode="&#xe4;" d="M106 498q13 115 81.5 211t172.5 147q106 53 226.5 46t218.5 -71q136 -86 188 -241v88v203q0 12 13.5 12t13.5 -12v-133v-322v-92v-6v3v-5q6 -21 12 -45q12 -41 34 -123t34 -123q2 -8 -3.5 -12.5t-12.5 -3t-9 9.5q-8 30 -24.5 91.5t-24.5 92.5q-8 25 -29 100 q-31 -103 -106 -182.5t-176 -114.5q-110 -40 -228.5 -20t-210.5 94q-92 72 -138 182t-32 226zM131 451q-2 -114 54.5 -215.5t154.5 -159.5q100 -60 218 -61t220 59q98 57 155.5 156.5t59.5 215.5q-2 113 -57.5 212t-151.5 157q-99 60 -216.5 62t-219.5 -56 q-99 -58 -158 -157t-59 -213zM338 1281q-6 13 0 26.5t22 13.5t22 -13.5t0 -26.5t-22 -13t-22 13zM721.5 1281q-6.5 13 0 26.5t23.5 13.5q16 0 22 -13.5t0 -26.5t-22 -13q-17 0 -23.5 13z" />
<glyph unicode="&#xe5;" d="M106 498q14 116 81 211.5t171 146.5q106 53 226.5 46t220.5 -71q137 -89 188 -241v88v203q0 12 12.5 12t12.5 -12v-133v-322v-92v-6v2l2 -4q6 -21 12 -45q12 -41 34 -123t34 -123q2 -8 -3.5 -12.5t-12.5 -3t-9 9.5q-25 83 -51 184q-4 15 -13.5 48t-13.5 52 q-33 -104 -107.5 -183t-174.5 -114q-110 -40 -229.5 -20t-211.5 94q-91 72 -136.5 182t-31.5 226zM129 451q-1 -114 56 -215t155 -160q100 -60 218 -61t218 59q99 57 157 157t58 215q0 112 -56 211t-151 158q-100 60 -218 62t-218 -56q-100 -57 -159 -156t-60 -214z M439.5 1259q-18.5 58 4.5 115q23 56 78 85.5t113 17.5t96.5 -60t38.5 -108q0 -70 -47 -117q-42 -43 -103 -50.5t-112 25.5q-50 34 -68.5 92zM457 1300q5 -57 48.5 -96.5t100.5 -38.5q58 3 98.5 45t40.5 99q0 14 -2 20q-6 57 -52 93t-103 30q-58 -4 -96 -49t-35 -103z" />
<glyph unicode="&#xe7;" horiz-adv-x="940" d="M102 446l2 5l-2 4q0 29 7 69q19 125 102 224t201 139q138 45 270 8q142 -43 231 -154q10 -10 0 -20q-3 -3 -9 -3.5t-9 3.5q-2 3 -7 9t-7 9q-100 111 -240 135q-136 28 -258 -28q-113 -52 -182 -156q-70 -109 -70 -235v-4v-5v-20q6 -125 80 -229t190 -148q129 -52 263 -16 q140 36 231 147q3 4 9 4t9 -4q11 -7 0 -18q-24 -31 -49 -53q-114 -100 -258 -115q-8 0 -12 -2q-13 -38 -39.5 -112.5t-40.5 -112.5q60 -8 101.5 -54.5t41.5 -107.5v-2v-2q0 -48 -27 -89.5t-71 -60.5q-51 -21 -103.5 -8t-86.5 55q-11 11 0 19q3 5 9 5t9 -5q30 -35 74 -47 t86 6q37 17 60 50.5t24 74.5v2v2q-2 56 -41 95t-96 40q-6 0 -11 5t-2 11q0 4 2 4q57 166 82 232q-109 -3 -213 49q-114 58 -181 167.5t-69 237.5z" />
<glyph unicode="&#xe8;" horiz-adv-x="950" d="M109 375q-19 129 22 237q43 109 136.5 186t209.5 97q133 22 256 -31q120 -54 195 -164q6 -8 -4 -18q-10 -7 -31 -21.5t-31 -21.5q-39 -29 -117.5 -87.5t-117.5 -86.5q-51 -38 -147 -107.5t-120 -87.5q-74 -56 -124 -92q-2 -2 -7 -2q37 -45 101 -88q101 -61 223 -61 q4 0 8 -4q4 4 8 4q176 0 299 123q3 3 7.5 3.5t8 -1.5t5.5 -5.5t1.5 -8t-3.5 -7.5q-134 -131 -318 -131q-6 0 -8 2q-2 -2 -8 -2q-100 0 -192.5 43.5t-155.5 120.5q-79 98 -96 211zM129.5 478.5q-8.5 -120.5 46.5 -226.5q26 -43 41 -62q0 8 6 11q13 10 60 43q88 67 235 174 q205 150 266 194q48 38 115 84q-52 70 -126 116t-157 58q-118 19 -229.5 -29t-179.5 -145q-69 -97 -77.5 -217.5zM453 1393q-4 13 6 18q3 2 9 1t7 -5q2 -2 2 -6q43 -92 101 -227q4 -13 -5 -19q-14 -5 -18 6q0 1 -1 2t-1 2q-83 190 -100 228z" />
<glyph unicode="&#xe9;" horiz-adv-x="950" d="M109 375q-20 130 24 237q43 110 135.5 186.5t208.5 96.5q135 22 256 -31q124 -56 195 -164q6 -8 -4 -18q-47 -33 -60 -43q-40 -29 -118.5 -87.5t-118.5 -86.5q-44 -33 -132.5 -97.5t-132.5 -97.5q-21 -16 -62.5 -46t-63.5 -46q-2 -2 -7 -2q37 -45 101 -88 q101 -61 223 -61q4 0 8 -4q4 4 8 4q176 0 299 123q3 3 7.5 3.5t8 -1.5t5.5 -5.5t1.5 -8t-3.5 -7.5q-63 -63 -146 -97t-172 -34q-6 0 -8 2q-2 -2 -8 -2q-100 0 -192.5 43.5t-155.5 120.5q-79 98 -96 211zM129.5 478.5q-8.5 -120.5 48.5 -226.5q11 -22 39 -62q0 8 6 11 q10 7 30 21.5t30 21.5q206 152 237 174q147 110 264 194q85 64 115 84q-52 70 -126 116t-157 58q-117 19 -229 -29t-180 -145q-69 -97 -77.5 -217.5zM455 1174q0 4 2 4q16 38 49 114.5t49 114.5q5 8 18 4q12 -8 5 -18q0 -1 -3 -4q-17 -38 -49.5 -114t-48.5 -114 q-7 -10 -18 -6q-12 8 -4 19z" />
<glyph unicode="&#xea;" horiz-adv-x="952" d="M109 375q-19 125 24 237q43 110 135.5 186.5t208.5 96.5q136 22 256 -31q122 -53 197 -164q6 -10 -6 -18q-13 -10 -60 -43q-20 -15 -105 -78t-132 -96q-44 -33 -132.5 -97.5t-132.5 -97.5q-21 -16 -62.5 -46.5t-61.5 -45.5q-2 -2 -9 -2q45 -51 103 -88q101 -61 221 -61 q4 0 8 -4q4 4 8 4q176 0 299 123q3 3 7.5 3.5t8 -1.5t5.5 -5.5t1.5 -8t-3.5 -7.5q-63 -63 -146 -97t-172 -34q-6 0 -8 2q-2 -2 -8 -2q-100 0 -191.5 43t-154.5 121q-77 92 -98 211zM131 478.5q-8 -120.5 47 -226.5q26 -44 39 -62q5 10 6 11q47 33 60 43q120 88 237 174 q147 110 264 194q6 4 115 84q-50 70 -123.5 116t-157.5 58q-118 19 -230 -29t-181 -145q-68 -97 -76 -217.5zM263 1170.5q-2 6.5 3 11.5q18 16 51 49q32 29 95.5 89t95.5 89q4 4 8 4q2 0 10 -4q8 -8 26 -24.5t26 -24.5q125 -117 188 -178q6 -5 3.5 -11.5t-9 -9t-12.5 1.5 q-25 25 -52 49q-30 28 -90 85t-90 85l-41 -41q-32 -29 -95.5 -89t-94.5 -89q-6 -5 -13 -2t-9 9.5z" />
<glyph unicode="&#xeb;" horiz-adv-x="950" d="M109 375q-19 129 22 237q43 109 136.5 186t209.5 97q133 22 256 -31q120 -54 195 -164q6 -8 -4 -18q-47 -33 -60 -43q-47 -33 -132 -96t-105 -78q-51 -38 -147 -107.5t-120 -87.5q-74 -56 -124 -92q-2 -2 -7 -2q37 -45 101 -88q101 -61 223 -61q4 0 8 -4q4 4 8 4 q176 0 299 123q3 3 7.5 3.5t8 -1.5t5.5 -5.5t1.5 -8t-3.5 -7.5q-63 -63 -146 -97t-172 -34q-6 0 -8 2q-2 -2 -8 -2q-100 0 -192.5 43.5t-155.5 120.5q-79 98 -96 211zM129.5 478.5q-8.5 -120.5 48.5 -226.5q11 -22 39 -62q0 8 6 11q13 10 60 43q117 88 237 174 q147 110 264 194q85 64 115 84q-52 70 -126 116t-157 58q-117 19 -229 -29t-180 -145q-69 -97 -77.5 -217.5zM297 1273q-6 13 0 26.5t22 13.5q17 0 23.5 -13.5t0 -26.5t-23.5 -13q-16 0 -22 13zM689.5 1273q-6.5 13 0 26.5t23.5 13.5q16 0 22 -13.5t0 -26.5t-22 -13 q-17 0 -23.5 13z" />
<glyph unicode="&#xec;" horiz-adv-x="249" d="M104 1366q-4 12 7 18q3 2 9 0t7 -6q2 -2 2 -4q44 -100 98 -223q4 -11 -6 -16q-3 -3 -9 -1.5t-7 5.5q0 1 -1 2t-1 2q-17 37 -50 111.5t-49 111.5zM203 16v93v313v319v150q0 12 13 12t13 -12v-90v-299v-320v-166q0 -12 -13 -12t-13 12z" />
<glyph unicode="&#xed;" horiz-adv-x="249" d="M104 16v93v313v319v150q0 12 12.5 12t12.5 -12v-90v-299v-320v-166q0 -12 -12.5 -12t-12.5 12zM104 1151l2 4q17 38 99 223q1 4 7 6t9 0q10 -5 6 -18q-2 -2 -2 -4q-17 -37 -49 -111.5t-49 -111.5q-1 -4 -7 -5.5t-9 1.5q-11 5 -7 16z" />
<glyph unicode="&#xee;" horiz-adv-x="620" d="M103 1148q-2 6 3 11q26 26 50 47q127 119 186 176q2 2 8 2t10 -2q8 -8 25 -24.5t25 -24.5q180 -168 186 -174q6 -5 3.5 -11.5t-9 -8.5t-12.5 2q-30 30 -52 47q-58 58 -176 168q-12 -15 -41 -39q-31 -30 -92.5 -88t-91.5 -88q-6 -5 -13 -2t-9 9zM338 16v93v313v319v150 q0 12 13.5 12t13.5 -12v-90v-299v-320v-166q0 -12 -13.5 -12t-13.5 12z" />
<glyph unicode="&#xef;" horiz-adv-x="557" d="M105 1247.5q-6 12.5 0 25.5t22 13q17 0 23.5 -13t0 -25.5t-23.5 -12.5q-16 0 -22 12.5zM307 16v93v313v319v150q0 12 13.5 12t13.5 -12v-90v-299v-320v-166q0 -12 -13.5 -12t-13.5 12zM490 1247.5q-6 12.5 0 25.5t22 13t22 -13t0 -25.5t-22 -12.5t-22 12.5z" />
<glyph unicode="&#xf1;" d="M103 891q0 12 12 12h127q55 0 99.5 -31.5t57.5 -83.5q7 -24 7 -79v-17q29 76 90 125q93 83 209 86q121 4 184 -24q111 -45 168 -146q45 -77 45 -174v-258v-289q0 -12 -12.5 -12t-12.5 12v138v313v96q0 91 -47 168q-62 101 -170 135q-56 17 -100 17q-48 0 -82 -5 q-115 -16 -195 -102q-74 -86 -77 -207v-4v-299v-248q0 -9 -6 -12t-12.5 0t-6.5 12v238v328v122q0 53 -4 68q-10 55 -60 88q-37 21 -79 21h-123q-12 0 -12 12zM381 1171q0 44 21 83t59 55q78 38 153 -17q17 -13 74 -65q47 -37 78 -41q57 -10 98 28q43 37 43 97q0 12 13.5 12 t13.5 -12q0 -46 -26 -85.5t-68 -56.5q-46 -17 -86 -8q-29 7 -66 33q-12 9 -42.5 39t-55.5 45.5t-53 17.5q-60 7 -97 -30q-34 -37 -34 -95q0 -8 -6.5 -11t-13 0t-5.5 11z" />
<glyph unicode="&#xf2;" horiz-adv-x="1034" d="M104 416q-8 123 48.5 234t160.5 177q105 68 231.5 72t235.5 -57q107 -60 170.5 -167.5t63.5 -230.5q0 -107 -49.5 -204t-137.5 -162q-100 -74 -226 -85.5t-239 42.5q-111 53 -181 155.5t-77 225.5zM139 532q-25 -124 19 -239q43 -110 139 -187q96 -74 220 -86.5t233 41.5 q104 52 172 156q65 108 65 227q0 165 -104 281q-83 92 -195 129q-126 37 -242 4q-116 -31 -199 -119.5t-108 -206.5zM385 1415q-3 14 4 19q13 8 21 -4v-5q56 -129 104 -235q5 -14 -6 -19q-11 -7 -19 5q0 4 -2 6q-42 100 -102 233z" />
<glyph unicode="&#xf3;" horiz-adv-x="1034" d="M104 416q-8 123 48.5 234t160.5 177q105 68 231.5 72t235.5 -57q107 -60 170.5 -167.5t63.5 -230.5q0 -107 -49.5 -204t-137.5 -162q-100 -74 -226 -85.5t-239 42.5q-111 53 -181 155.5t-77 225.5zM139 532q-25 -124 19 -239q43 -110 139 -187q96 -74 220 -86.5t233 41.5 q104 52 172 156q65 103 65 227q0 165 -104 281q-78 91 -195 129q-126 37 -242 4q-116 -31 -199 -119.5t-108 -206.5zM539 1190q0 4 2 4q44 108 102 236q1 4 8 5.5t11 -1.5q8 -5 4 -19q-2 -2 -2 -4q-7 -17 -103 -235q-8 -12 -18 -5q-12 8 -4 19z" />
<glyph unicode="&#xf4;" horiz-adv-x="1034" d="M104 416q-8 123 48.5 234t160.5 177q105 68 231.5 72t235.5 -57q107 -60 170.5 -167.5t63.5 -230.5q0 -107 -49.5 -204t-137.5 -162q-100 -74 -226 -85.5t-239 42.5q-109 53 -179 155.5t-79 225.5zM139 532q-25 -126 21 -239q40 -109 137 -187q95 -74 220.5 -86.5 t232.5 41.5q109 54 172 156q65 103 65 227q0 165 -104 281q-78 91 -195 129q-126 37 -239 4q-117 -31 -201 -119.5t-109 -206.5zM298 1185.5q-2 6.5 3 12.5q18 16 53 51q78 70 195 183q4 4 10 4t10 -4q18 -18 54 -50q107 -103 194 -184q6 -6 3.5 -13t-9.5 -8.5t-14 3.5 q-8 8 -26 24.5t-26 24.5q-127 119 -186 176q-29 -29 -43 -41q-87 -81 -194 -184q-7 -6 -14.5 -3.5t-9.5 9z" />
<glyph unicode="&#xf5;" horiz-adv-x="1032" d="M104 416q-9 122 47.5 233.5t159.5 177.5q105 68 232 72t235 -57q107 -60 170.5 -167.5t63.5 -230.5q0 -107 -49.5 -204t-135.5 -162q-101 -74 -226.5 -85.5t-238.5 42.5q-111 53 -181 155.5t-77 225.5zM139 532q-25 -124 19 -239q44 -112 137 -187q97 -74 221.5 -86.5 t233.5 41.5q106 53 170 156q65 103 65 227q0 165 -104 281q-78 90 -193 129q-128 38 -242 4q-116 -31 -199 -119.5t-108 -206.5zM281 1155q0 44 20.5 82.5t58.5 56.5q83 36 156 -18q12 -9 74 -66q40 -36 76 -41q55 -9 100 29q43 40 43 96q0 8 6.5 11t13 0t5.5 -11 q0 -46 -26 -85t-69 -56q-45 -17 -86 -8q-31 8 -63 33q-11 9 -42.5 39.5t-56.5 45.5t-53 17q-58 7 -96 -31q-35 -38 -35 -94q0 -12 -13 -12t-13 12z" />
<glyph unicode="&#xf6;" horiz-adv-x="1032" d="M104 416q-9 122 47.5 233.5t159.5 177.5q105 68 232 72t235 -57q107 -60 170.5 -167.5t63.5 -230.5q0 -107 -49.5 -204t-135.5 -162q-101 -74 -226.5 -85.5t-238.5 42.5q-111 53 -181 155.5t-77 225.5zM139 532q-25 -124 19 -239q44 -112 137 -187q97 -74 221.5 -86.5 t233.5 41.5q106 53 170 156q65 103 65 227q0 165 -104 281q-78 90 -193 129q-128 38 -242 4q-116 -31 -199 -119.5t-108 -206.5zM332.5 1292q-6.5 14 0 27.5t23.5 13.5t23.5 -13.5t0 -27.5t-23.5 -14t-23.5 14zM736.5 1292q-6.5 14 0 27.5t23.5 13.5t23.5 -13.5t0 -27.5 t-23.5 -14t-23.5 14z" />
<glyph unicode="&#xf9;" horiz-adv-x="858" d="M102 365v282v232q0 12 14.5 12t14.5 -12v-23v-303v-150q0 -79 2 -94q16 -122 111 -205q90 -81 217 -81q2 0 4.5 -1.5t3.5 -1.5t4.5 1.5t5.5 1.5q67 0 125 24q112 47 170 156q35 71 35 162v282v232q0 12 14.5 12t14.5 -12v-33v-314v-141q0 -70 -9 -112q-29 -126 -124 -203 q-99 -80 -226 -80q-8 0 -10 2q-2 -2 -8 -2q-81 0 -156 35q-112 54 -166 166q-37 78 -37 168zM352 1419q-5 14 6 19q11 8 19 -4q0 -4 2 -4q18 -40 51 -119t51 -119q7 -11 -4 -18q-15 -5 -18 6q-2 0 -2 4q-17 39 -52 117.5t-53 117.5z" />
<glyph unicode="&#xfa;" horiz-adv-x="856" d="M102 365v282v232q0 12 13.5 12t13.5 -12v-23v-303v-150q0 -79 2 -94q19 -122 111 -205q90 -81 219 -81q1 0 4 -1.5t4 -1.5t3.5 1.5t4.5 1.5q65 0 127 24q115 49 168 156q37 70 37 162v282v232q0 12 13.5 12t13.5 -12v-33v-314v-141q0 -70 -9 -112q-25 -122 -122 -203 q-104 -80 -228 -80q-6 0 -8 2q-2 -2 -8 -2q-83 0 -158 35q-112 54 -166 166q-35 74 -35 168zM426 1192q0 4 2 6q20 44 54.5 125t47.5 111q8 12 19 4q11 -5 6 -19q-2 -2 -2 -4q-17 -39 -51.5 -117.5t-52.5 -117.5q-3 -11 -19 -6q-11 7 -4 18z" />
<glyph unicode="&#xfb;" horiz-adv-x="858" d="M102 365v282v232q0 12 14.5 12t14.5 -12v-23v-303v-150q0 -79 2 -94q16 -122 111 -205q90 -81 217 -81q2 0 5 -1.5t5 -1.5q1 0 3.5 1.5t4.5 1.5q67 0 125 24q112 47 170 156q35 71 35 162v282v232q0 12 14.5 12t14.5 -12v-33v-314v-141q0 -70 -9 -112q-29 -125 -122 -203 q-104 -80 -228 -80q-6 0 -8 2q-4 -2 -10 -2q-81 0 -156 35q-112 54 -166 166q-37 78 -37 168zM199.5 1189q-1.5 7 3.5 13q9 8 26.5 24.5t26.5 24.5q33 31 98.5 93t98.5 92q2 4 8 4q8 0 10 -4q9 -8 26.5 -25t26.5 -25q33 -31 98.5 -92.5t98.5 -91.5q6 -6 3 -13.5t-10 -9.5 t-14 3q-8 8 -26 25t-27 26q-21 19 -58 54.5t-68.5 65t-59.5 54.5q-14 -12 -43 -41q-33 -30 -98.5 -91.5t-98.5 -92.5q-6 -6 -13 -3t-8.5 10z" />
<glyph unicode="&#xfc;" horiz-adv-x="856" d="M102 365v282v232q0 12 13.5 12t13.5 -12v-23v-303v-150q0 -79 2 -94q19 -122 111 -205q90 -81 219 -81q1 0 4 -1.5t4 -1.5t3.5 1.5t4.5 1.5q65 0 127 24q115 49 168 156q37 70 37 162v282v232q0 12 13.5 12t13.5 -12v-33v-314v-141q0 -70 -9 -112q-25 -122 -122 -203 q-104 -80 -228 -80q-6 0 -8 2q-2 -2 -8 -2q-83 0 -158 35q-112 54 -166 166q-35 74 -35 168zM242.5 1295q-6.5 13 0 26.5t23.5 13.5t23.5 -13.5t0 -26.5t-23.5 -13t-23.5 13zM648.5 1295q-6.5 13 0 26.5t23.5 13.5t23.5 -13.5t0 -26.5t-23.5 -13t-23.5 13z" />
<glyph unicode="&#xfd;" horiz-adv-x="749" d="M104 877q-3 13 5 18q4 3 10.5 1.5t7.5 -5.5h2q13 -30 39.5 -91.5t40.5 -92.5q24 -53 70.5 -160t70.5 -160q11 -28 66 -149q21 47 61 140t60 140q39 84 118 266q40 93 47 111q3 4 9.5 5.5t9.5 -1.5q10 -5 6 -18q-1 -1 -2 -3.5t-2 -3.5q-11 -26 -34 -77.5t-34 -77.5 q-21 -48 -63 -144.5t-64 -144.5q-23 -54 -71.5 -162.5t-71.5 -163.5q-39 -90 -117 -266q-8 -19 -24.5 -55t-24.5 -55q-3 -12 -18 -7q-12 8 -4 19q0 1 1 3.5t1 4.5q12 25 34 77t33 77q86 192 127 288q3 9 6 15q-14 30 -40 92t-40 92q-16 35 -44.5 100.5t-52 118.5t-44.5 99 q-7 16 -33.5 77t-40.5 93zM397 1192q0 1 1 3t1 3q21 46 58.5 133.5t44.5 102.5q7 11 18 4q11 -5 6 -19q-2 -2 -2 -4q-17 -39 -52 -117.5t-52 -117.5q-3 -11 -19 -6q-11 7 -4 18z" />
<glyph unicode="&#xfe;" horiz-adv-x="1175" d="M105 213q-4 6 0 12t12 6h82h118v238v59h-200q-12 0 -12 12.5t12 12.5h18h182v250v321v240v94q0 4 4 8t9 4h37h292q87 0 140 -14q112 -27 198 -104q87 -76 128 -187t26 -227q-13 -113 -80.5 -208t-169.5 -148q-105 -54 -217 -54h-94h-238h-8v-194v-103h172h193 q12 0 12 -12t-12 -12h-84h-281v-113v-94q0 -12 -13.5 -12t-13.5 12v20v166v21h-8h-192q-8 0 -12 6zM344 553h18h281q82 0 123 8q113 22 201 92q91 78 129 176q46 106 30 228q-13 110 -80.5 203t-168.5 143q-90 43 -195 43h-102h-236v-8v-166v-283v-334v-102z" />
<glyph unicode="&#xff;" horiz-adv-x="751" d="M106 877q-6 11 5 18q4 3 10.5 1.5t7.5 -5.5q8 -17 82 -184t139 -320q46 -98 66 -149q21 47 62 140t61 140q114 257 118 266l48 111q7 11 18 4q10 -5 6 -18q-1 -1 -2 -3.5t-2 -3.5q-11 -26 -33.5 -77.5t-34.5 -77.5q-21 -48 -63 -144.5t-64 -144.5q-24 -54 -71.5 -162.5 t-71.5 -163.5q-39 -90 -117 -266q-8 -19 -24.5 -55t-24.5 -55q-6 -11 -18 -7q-11 5 -6 19l4 8q11 25 33.5 77t33.5 77l63 144t64 144q3 9 6 15q-13 30 -39 91.5t-40 92.5q-89 201 -142 318q-7 16 -33.5 77t-40.5 93zM187.5 1295q-6.5 13 0 26.5t23.5 13.5t23.5 -13.5 t0 -26.5t-23.5 -13t-23.5 13zM592.5 1295q-6.5 13 0 26.5t23.5 13.5t23.5 -13.5t0 -26.5t-23.5 -13t-23.5 13z" />
<glyph unicode="&#x178;" horiz-adv-x="1085" d="M104 1456q-5 11 6 16.5t17 -4.5q1 -1 2 -3t2 -3q16 -28 45 -82.5t45 -81.5q89 -157 156 -284q42 -72 149 -269q3 -6 24 -42.5t30 -55.5q6 11 37.5 67t48.5 85q53 96 159 284q116 208 150 267q22 45 65 118q5 6 11.5 6t11 -5.5t0.5 -12.5q-1 -1 -2 -4t-2 -4 q-15 -27 -45.5 -83t-46.5 -83q-27 -47 -80.5 -141.5t-79.5 -141.5q-102 -183 -150 -266q-32 -63 -63 -115v-92v-323v-189q0 -8 -6 -12t-12.5 0t-6.5 12v105v323v172q-1 1 -2 3.5t-2 3.5q-27 51 -90 163q-25 47 -77.5 141.5t-78.5 141.5l-147 270q-25 43 -68 119zM367 1807 q-6 13 0 25.5t22 12.5t22 -12.5t0 -25.5t-22 -13t-22 13zM752 1807q-6 13 0 25.5t22 12.5t22 -12.5t0 -25.5t-22 -13t-22 13z" />
<glyph unicode="&#x2000;" horiz-adv-x="1037" />
<glyph unicode="&#x2001;" horiz-adv-x="2074" />
<glyph unicode="&#x2002;" horiz-adv-x="1037" />
<glyph unicode="&#x2003;" horiz-adv-x="2074" />
<glyph unicode="&#x2004;" horiz-adv-x="691" />
<glyph unicode="&#x2005;" horiz-adv-x="518" />
<glyph unicode="&#x2006;" horiz-adv-x="345" />
<glyph unicode="&#x2007;" horiz-adv-x="345" />
<glyph unicode="&#x2008;" horiz-adv-x="259" />
<glyph unicode="&#x2009;" horiz-adv-x="414" />
<glyph unicode="&#x200a;" horiz-adv-x="115" />
<glyph unicode="&#x2010;" horiz-adv-x="837" d="M103 723q0 12 12 12h188h328h174q12 0 12 -12t-12 -12h-189h-327h-174q-12 0 -12 12z" />
<glyph unicode="&#x2011;" horiz-adv-x="837" d="M103 723q0 12 12 12h188h328h174q12 0 12 -12t-12 -12h-189h-327h-174q-12 0 -12 12z" />
<glyph unicode="&#x2012;" horiz-adv-x="837" d="M103 723q0 12 12 12h188h328h174q12 0 12 -12t-12 -12h-189h-327h-174q-12 0 -12 12z" />
<glyph unicode="&#x2013;" horiz-adv-x="1147" d="M103 723q0 12 17 12h270h470h250q17 0 17 -12t-17 -12h-271h-469h-250q-17 0 -17 12z" />
<glyph unicode="&#x2014;" horiz-adv-x="2171" d="M103 723q0 12 34 12h540h940h500q34 0 34 -12t-34 -12h-543h-937h-500q-34 0 -34 12z" />
<glyph unicode="&#x201a;" horiz-adv-x="233" d="M104 -180q62 166 82 215q5 12 19 7q10 -4 6 -13q-20 -49 -82 -215q-5 -14 -19 -7q-10 4 -6 13z" />
<glyph unicode="&#x201c;" horiz-adv-x="600" d="M104 1343q14 36 82 216q3 7 10.5 8t12.5 -3.5t2 -11.5v-2q-2 -6 -33.5 -88t-48.5 -125q-2 -8 -9 -9.5t-12.5 3t-3.5 12.5zM473 1343q14 36 40.5 108t39.5 108q3 7 10.5 8t12.5 -3.5t2 -11.5v-2q-5 -12 -80 -213q-5 -13 -18 -9q-11 4 -7 15z" />
<glyph unicode="&#x201d;" horiz-adv-x="600" d="M104 1550q-2 8 3.5 12.5t12.5 3t9 -9.5q13 -32 27 -68t30 -78.5t25 -66.5v-2q5 -11 -9 -14q-12 -2 -16 8q-62 166 -82 215zM473 1550q-5 13 9 15q12 2 16 -9q75 -201 80 -213v-2q5 -11 -9 -14q-12 -2 -16 8q-14 36 -40.5 107.5t-39.5 107.5z" />
<glyph unicode="&#x201e;" horiz-adv-x="600" d="M104 -172q20 50 82 215q5 12 19 7q10 -4 6 -13v-2q-2 -6 -33.5 -88t-48.5 -125q-2 -8 -9 -9.5t-12.5 3t-3.5 12.5zM473 -172q14 36 40 107.5t40 107.5q5 12 19 7q10 -4 6 -13v-2q-5 -12 -80 -213q-5 -13 -18 -9q-11 4 -7 15z" />
<glyph unicode="&#x202f;" horiz-adv-x="414" />
<glyph unicode="&#x2039;" horiz-adv-x="647" d="M109 727q-14 11 0 21q19 16 94 71q43 33 128 98.5t128 98.5q25 19 74 56.5t73 57.5q10 7 19 -6q3 -9 -7 -16q-59 -48 -94 -72q-42 -33 -127 -98t-127 -98q-22 -18 -67 -51.5t-68 -51.5q14 -10 40 -30.5t40 -30.5q227 -174 256 -197q122 -93 147 -112q10 -7 7 -17 q-9 -13 -19 -6q-15 12 -47 36.5t-47 37.5q-141 106 -256 194q-24 19 -73 57.5t-74 57.5z" />
<glyph unicode="&#x203a;" horiz-adv-x="647" d="M104 350q-3 10 7 17q24 20 147 112q29 23 256 197q14 10 40 30.5t40 30.5q-23 18 -68 51.5t-67 51.5q-42 33 -127 98t-127 98q-35 24 -94 72q-10 7 -7 16q9 13 19 6q25 -20 74 -57.5t73 -56.5q43 -33 128 -98.5t128 -98.5q87 -65 95 -71q14 -10 0 -21q-25 -19 -74 -57.5 t-74 -57.5q-115 -88 -256 -194q-16 -12 -47.5 -36.5t-46.5 -37.5q-10 -7 -19 6z" />
<glyph unicode="&#x205f;" horiz-adv-x="518" />
<glyph unicode="&#x20ac;" horiz-adv-x="1302" d="M103 545.5q0 13.5 12 13.5h55h242v94v201h-142h-155q-12 0 -12 12.5t12 12.5h55h242v75q0 55 2 82q9 117 71 217q62 98 162.5 158t214.5 64q25 2 76 2q42 0 106 -11q136 -28 234 -123q9 -9 0 -17.5t-18 -0.5q-63 63 -148 94q-64 25 -131 31h-80q-114 0 -199 -39 q-103 -47 -172 -137.5t-88 -202.5q-4 -35 -4 -102v-90h8h322h156q12 0 12 -12.5t-12 -12.5h-56h-276h-154v-10v-285h8h322h156q12 0 12 -13.5t-12 -13.5h-56h-276h-154v-2v-63q0 -111 54 -213q54 -101 149.5 -164t208.5 -72q25 -2 78 -2q40 0 98 7q138 25 234 118q9 9 18 0 t0 -18q-103 -98 -242 -123q-47 -8 -104 -8q-8 0 -23.5 -0.5t-28.5 -0.5t-24 1q-121 10 -217 69q-99 62 -159 162t-66 215q-2 25 -2 76v18h-142h-155q-12 0 -12 13.5z" />
<glyph unicode="&#x25fc;" horiz-adv-x="839" d="M0 0v840h840v-840h-840z" />
</font>
</defs>
</svg>
